<svg width="100" height="100" viewBox="0 0 100 100" fill="none" xmlns="http://www.w3.org/2000/svg">
<path d="M24.8736 0.371088C22.4729 1.46482 22.4276 4.23822 24.8056 5.52726C26.8666 6.64052 29.7202 7.81238 30.3996 7.81238C31.3734 7.81238 32.5738 7.22645 33.2079 6.42568C33.6608 5.87881 33.7288 5.58585 33.6608 4.62883C33.5702 3.65229 33.457 3.41792 32.7776 2.83199C31.7358 1.95309 27.3422 1.19209e-07 26.391 1.19209e-07C25.9833 1.19209e-07 25.3039 0.156248 24.8736 0.371088Z" fill="#FF7443"/>
<path d="M72.0938 0.312493C66.9528 2.61714 66.228 3.18354 66.228 4.9218C66.228 6.54286 67.6322 7.71472 69.5572 7.71472C70.5764 7.69519 71.0973 7.53894 73.2714 6.48427C76.125 5.09757 76.7592 4.51165 76.895 3.14448C77.1215 0.957014 74.3359 -0.703116 72.0938 0.312493Z" fill="#FF7443"/>
<path d="M48.7441 0.664043C47.6797 1.07419 47.1814 1.62106 45.3696 4.41398C41.746 9.90218 39.6398 14.199 39.436 16.5036C39.0962 19.9606 41.4969 23.5543 45.2111 25.1754L46.6152 25.7808V27.5386V29.2964H44.124C41.3384 29.2964 40.7269 29.4722 39.7304 30.4683L39.1415 31.0933V39.9603V48.8274H25.3945C17.264 48.8274 11.0132 48.9055 10.1526 49.0227C8.00111 49.3156 5.19281 50.5656 3.60748 51.9328C1.93155 53.3781 0.980356 54.8429 0.368871 56.8546C-1.03528 61.6787 1.65978 66.581 6.91402 68.788L8.79377 69.5692V83.7682V97.9867L9.31467 98.6508C9.58644 99.0219 10.1753 99.4711 10.6056 99.6469C11.3529 99.9789 13.7083 99.9984 49.9671 99.9984C92.7031 99.9984 89.5098 100.096 90.6195 98.7485L91.1177 98.143L91.1857 83.7682L91.231 69.3934L92.0916 69.1786C94.1752 68.6317 97.4364 66.2099 98.5235 64.3935C100.426 61.1514 100.494 57.9874 98.7047 54.7843C97.3005 52.2453 95.1037 50.5656 91.7066 49.4328L90.2118 48.925L75.5588 48.8664L60.8832 48.8078V40.0775C60.8832 31.7182 60.8606 31.3276 60.4303 30.7026C59.6149 29.5503 58.8223 29.2964 55.9687 29.2964H53.4095V27.48V25.6832L54.6551 25.2144C56.2178 24.648 58.1655 23.0856 59.1846 21.6012C60.1811 20.1169 60.77 17.9489 60.5661 16.3669C60.2717 14.1209 58.392 10.2537 55.1307 5.17569C53.2057 2.20699 52.5036 1.30856 51.7562 0.878883C50.9862 0.449202 49.5368 0.351548 48.7441 0.664043ZM51.6656 12.2459C54.1569 16.7771 54.2928 17.8513 52.5263 19.3552C51.0089 20.6637 48.9706 20.6247 47.3853 19.2575C46.117 18.1833 45.9358 17.4021 46.5926 15.6833C47.1588 14.2381 49.7406 9.57015 50.0124 9.57015C50.103 9.57015 50.8277 10.7811 51.6656 12.2459ZM54.0889 41.9915V48.8274H50.0124H45.9358V41.9915V35.1557H50.0124H54.0889V41.9915ZM90.2118 55.2921C95.1264 57.46 93.4278 63.8662 87.9471 63.8662C86.0673 63.8662 85.0029 63.3974 83.4629 61.8545C81.1302 59.5889 79.1145 59.5694 77.1668 61.8545C75.9892 63.2021 74.5397 63.8662 72.7279 63.8662C70.8934 63.8467 69.829 63.3779 68.2663 61.835C65.8204 59.4327 63.918 59.5694 61.5173 62.3428C60.6567 63.3193 59.2526 63.8662 57.5767 63.8662C55.7875 63.8662 54.4739 63.2998 53.2963 61.9717C52.3451 60.8975 50.9636 60.1553 49.9218 60.1553C48.9479 60.1553 47.6797 60.8389 46.9097 61.7764C46.5246 62.2646 45.7546 62.9287 45.2337 63.2217C44.3731 63.7099 44.0561 63.7685 42.4254 63.7685C40.7948 63.7685 40.4777 63.7099 39.6398 63.2217C39.0962 62.9287 38.3262 62.2451 37.8959 61.7373C37.1033 60.7998 35.8803 60.1553 34.8385 60.1553C33.7967 60.1553 32.5737 60.7998 31.7811 61.7373C31.3508 62.2451 30.5807 62.9287 30.0372 63.2217C29.1992 63.7099 28.8822 63.7685 27.2516 63.7685C25.6209 63.7685 25.3039 63.7099 24.4433 63.2217C23.9224 62.9287 23.1523 62.2646 22.7673 61.7764C21.9973 60.8389 20.729 60.1553 19.7552 60.1553C18.7134 60.1553 17.3319 60.8975 16.3807 61.9717C15.0898 63.417 13.8668 63.9052 11.8285 63.8271C9.88086 63.749 8.68053 63.1631 7.66139 61.7959C5.69105 59.1006 7.45757 55.5069 11.0585 54.9015C11.6247 54.8038 28.9275 54.7452 50.5786 54.7648L89.1021 54.7843L90.2118 55.2921ZM20.9329 68.2606C25.0774 70.4286 30.3543 70.2919 34.227 67.9286C34.8385 67.5575 34.8385 67.5575 35.4726 67.9286C39.3454 70.2919 44.5996 70.4286 48.7441 68.2606C49.9218 67.6552 50.1256 67.5966 50.4427 67.8505C50.6465 67.9872 51.4165 68.3778 52.1639 68.6903C55.9007 70.2919 60.317 70.1356 63.8953 68.2802L65.2089 67.5966L66.1601 68.163C69.897 70.3309 75.3097 70.3505 79.2731 68.1825L80.2922 67.6161L81.4925 68.2606C82.1493 68.6122 83.1005 69.0224 83.5761 69.1591L84.4367 69.3934V74.2566V79.1003H50.0124H15.588V74.2371V69.3739L16.6751 69.0419C17.2866 68.8466 18.1699 68.456 18.6681 68.1435C19.1437 67.8505 19.574 67.5966 19.574 67.5966C19.5967 67.5771 20.2082 67.8896 20.9329 68.2606ZM84.4367 89.5494V94.1392H50.0124H15.588V89.5494V84.9596H50.0124H84.4367V89.5494Z" fill="#FF7443"/>
<path d="M22.9485 10.6248C21.7029 11.0936 20.797 12.285 20.797 13.3982C20.797 14.1599 21.6576 15.4099 22.4503 15.8201C23.0844 16.1521 23.6053 16.2107 26.4589 16.2107C29.3351 16.2107 29.8334 16.1521 30.4902 15.8201C32.7549 14.6287 32.6643 11.7772 30.309 10.7225C29.6522 10.41 29.0181 10.3514 26.5721 10.3514C24.6244 10.3709 23.4015 10.4491 22.9485 10.6248Z" fill="#FF7443"/>
<path d="M69.8064 10.6248C67.7228 11.4061 67.1566 13.9451 68.7646 15.3318C69.6705 16.1326 70.1234 16.2107 73.4979 16.2107C75.8306 16.2107 76.7365 16.1326 77.3254 15.8982C79.0919 15.1756 79.6581 12.9881 78.4577 11.6209C78.0954 11.2303 77.4613 10.7811 77.0536 10.6248C76.0345 10.2538 70.7802 10.2538 69.8064 10.6248Z" fill="#FF7443"/>
<path d="M26.5948 20.2536C24.4885 21.2887 23.8091 21.7379 23.4694 22.2653C22.6994 23.5153 23.0164 24.941 24.2847 25.9566C24.7377 26.3277 25.1906 26.4644 26.1871 26.5035C27.4101 26.5816 27.5913 26.523 30.0825 25.3316C33.1626 23.8668 33.7061 23.3395 33.7061 21.7379C33.7061 20.7809 33.6155 20.6051 32.8228 19.8825C32.0302 19.1403 31.849 19.0622 30.626 19.0036C29.3351 18.9255 29.1992 18.9645 26.5948 20.2536Z" fill="#FF7443"/>
<path d="M67.7228 19.3552C66.3413 20.1364 65.8204 21.6012 66.4998 22.9098C66.9981 23.8863 67.4284 24.1793 70.4179 25.566C72.0938 26.3277 72.8185 26.5621 73.5885 26.5621C76.7139 26.5621 78.118 23.3785 75.7853 21.5622C75.5136 21.3278 74.2453 20.6442 72.977 20.0387C70.3499 18.7692 69.0817 18.613 67.7228 19.3552Z" fill="#FF7443"/>
</svg>
