<svg width="60" height="60" viewBox="0 0 60 60" fill="none" xmlns="http://www.w3.org/2000/svg">
<path d="M28.125 0.140615C27.7031 0.199209 26.7891 0.433584 26.0977 0.667959C21.4102 2.22655 18.0352 6.53905 17.7305 11.3789L17.6602 12.5156L16.8398 12.5976C14.8828 12.7851 13.2656 13.5586 11.8242 15C10.6758 16.1367 10.043 17.168 9.65625 18.5156C8.77734 21.5742 9.55078 24.4687 11.8828 26.7773C14.4492 29.3203 18.1406 29.9062 21.3984 28.2891L22.2539 27.8672L23.543 28.1719C24.7617 28.4648 26.5078 28.7344 28.2773 28.8867L29.0625 28.9687V30.5391V32.1094H18.8086C7.91015 32.1094 8.01562 32.1094 7.80469 32.6367C7.76953 32.7422 7.73437 34.1719 7.73437 35.8125V38.7891H4.65234C1.19531 38.7891 1.10156 38.8125 0.410156 39.6562L0.0585937 40.1016L0.0234375 42.7148C-1.86265e-09 44.8359 0.0234375 45.4101 0.164062 45.75C0.316406 46.125 0.316406 46.2187 0.164062 46.582C-0.0703125 47.1562 -0.0703125 51.6328 0.164062 52.207C0.316406 52.5703 0.316406 52.6641 0.164062 53.0391C0.0234375 53.3789 -1.86265e-09 53.9531 0.0234375 56.0742L0.0585937 58.6875L0.410156 59.1328C1.10156 59.9766 1.20703 60 4.64062 60C7.46484 60 7.73437 59.9883 7.98047 59.7773C8.30859 59.5078 8.35547 58.8047 8.05078 58.5C7.86328 58.3242 7.48828 58.2891 4.82812 58.2422L1.81641 58.1836V55.8984V53.6133H8.49609H15.1758V55.8984V58.1836L13.1133 58.2422C11.2852 58.2891 11.0156 58.3242 10.793 58.5234C10.4297 58.8516 10.4648 59.4492 10.8633 59.7656C11.168 60 11.2852 60.0117 13.4297 59.9766L15.6797 59.9414L16.125 59.5898C16.9453 58.9101 16.9922 58.7344 16.9922 55.9219C16.9922 54.0117 16.957 53.332 16.8281 53.0273C16.6758 52.6641 16.6758 52.5703 16.8281 52.207C17.0625 51.6328 17.0625 47.1562 16.8281 46.582C16.6758 46.2187 16.6758 46.125 16.8281 45.75C16.9687 45.4101 16.9922 44.8359 16.9687 42.7148L16.9336 40.1016L16.582 39.6562C15.8906 38.8125 15.7734 38.7891 12.457 38.7891H9.49219V36.3281V33.8672H19.2773H29.0625V36.3281V38.7773L25.9805 38.8125L22.8867 38.8476L22.418 39.1641C21.5742 39.7148 21.5039 40.0078 21.5039 42.8906C21.5039 44.7656 21.5508 45.5039 21.668 45.7851C21.7969 46.1133 21.7969 46.2305 21.668 46.5469C21.4336 47.0976 21.4336 51.6914 21.668 52.2305C21.7969 52.5586 21.7969 52.6758 21.668 52.9922C21.5508 53.2851 21.5039 54.0234 21.5039 55.8984C21.5039 58.7812 21.5742 59.0742 22.418 59.625L22.8984 59.9414H30H37.1016L37.582 59.625C38.4258 59.0742 38.4961 58.7812 38.4961 55.8984C38.4961 54.0234 38.4492 53.2851 38.332 52.9922C38.2031 52.6758 38.2031 52.5586 38.332 52.2305C38.4492 51.9492 38.4961 51.2109 38.4961 49.3945C38.4961 47.5781 38.4492 46.8398 38.332 46.5469C38.2031 46.2305 38.2031 46.1133 38.332 45.7851C38.4492 45.5039 38.4961 44.7656 38.4961 42.8906C38.4961 40.0078 38.4258 39.7148 37.582 39.1641L37.1133 38.8476L34.0195 38.8125L30.9375 38.7773V36.3281V33.8672H40.7226H50.5078V36.3281V38.7891H47.543C44.2266 38.7891 44.1094 38.8125 43.418 39.6562L43.0664 40.1016L43.0312 42.7148C43.0078 44.8359 43.0312 45.4101 43.1719 45.75C43.3242 46.125 43.3242 46.2187 43.1719 46.582C42.9375 47.1562 42.9375 51.6328 43.1719 52.207C43.3242 52.5703 43.3242 52.6641 43.1719 53.0391C43.0312 53.3789 43.0078 53.9531 43.0312 56.0742L43.0664 58.6875L43.418 59.1328C44.168 60.0469 43.7461 60 51.5039 60C59.2617 60 58.8398 60.0469 59.5898 59.1328L59.9414 58.6875L59.9766 56.0742C60 53.9531 59.9766 53.3789 59.8359 53.0391C59.6836 52.6641 59.6836 52.5703 59.8359 52.207C60.0703 51.6328 60.0703 47.1562 59.8359 46.582C59.6836 46.2187 59.6836 46.125 59.8359 45.7617C59.9648 45.457 60 44.7773 60 42.8672C60 40.0547 59.9531 39.8789 59.1328 39.1992C58.7578 38.8945 58.582 38.8476 57.8555 38.8125C56.8008 38.7539 56.4375 38.9766 56.4375 39.6562C56.4375 40.2539 56.707 40.4766 57.5156 40.5469L58.1836 40.6055V42.8906V45.1758H51.5039H44.8242V42.8906V40.6055L49.3594 40.5469C54.4336 40.4766 54.3047 40.5 54.3047 39.6562C54.3047 39.0234 53.9531 38.7891 53.0156 38.7891H52.2656V35.8125C52.2656 34.1719 52.2305 32.7422 52.1953 32.6367C51.9844 32.1094 52.0898 32.1094 41.1914 32.1094H30.9375V30.5273C30.9375 29.6601 30.9727 28.9453 31.0312 28.9453C31.0781 28.9453 31.7227 28.8867 32.4609 28.8281C34.0898 28.6758 34.8281 28.5586 36.4805 28.1601L37.7461 27.8672L38.6016 28.2891C41.8594 29.9062 45.5508 29.3203 48.1172 26.7773C50.4492 24.4687 51.2226 21.5742 50.3437 18.5156C49.957 17.168 49.3242 16.1367 48.1758 15C46.7344 13.5586 45.1172 12.7851 43.1601 12.5976L42.3398 12.5156L42.2695 11.4375C42.1758 9.99608 41.7187 8.27343 41.0625 6.93749C40.2656 5.28515 39.8086 4.95702 39.0937 5.51952C38.6719 5.84765 38.707 6.21093 39.2695 7.28905C40.1133 8.91796 40.3945 9.94921 40.5469 11.8828C40.6523 13.2773 40.7695 13.5469 41.4844 14.0273C41.7422 14.2148 42.0469 14.2969 42.4101 14.2969C44.0508 14.3086 45.7031 15.0117 46.9453 16.2305C48.2695 17.5312 48.9141 19.043 48.9141 20.8594C48.9141 22.6523 48.2695 24.1406 46.9336 25.5C45.6328 26.8008 44.168 27.4219 42.3633 27.4219C41.1445 27.4219 40.3242 27.1992 39.0117 26.5195L37.957 25.9687L37.2305 26.168C34.5586 26.918 31.6523 27.2578 29.0039 27.1523C26.8359 27.0586 25.8398 26.918 23.7539 26.4023L22.0195 25.9805L20.9766 26.5195C19.6758 27.1992 18.8555 27.4219 17.6367 27.4219C15.832 27.4219 14.3672 26.8008 13.0664 25.5C11.7305 24.1406 11.0859 22.6523 11.0859 20.8594C11.0859 19.043 11.7305 17.5195 13.0547 16.2305C14.2852 15.0117 15.9609 14.3086 17.5898 14.2969C17.9531 14.2969 18.2578 14.2148 18.5156 14.0273C19.2305 13.5469 19.3477 13.2773 19.4531 11.8711C19.582 10.1484 19.8281 9.19921 20.5078 7.79296C21.8906 4.92187 24.2812 2.92968 27.3633 2.09765C28.6992 1.73437 31.2891 1.72265 32.6367 2.08593C33.7266 2.3789 35.4492 3.19921 36.2344 3.79687C37.125 4.48827 37.9687 4.28905 37.9687 3.39843C37.9687 3.01171 37.8984 2.89452 37.4766 2.54296C36.0937 1.42968 33.5977 0.386709 31.7227 0.128897C30.6445 -0.023447 29.2031 -0.0117283 28.125 0.140615ZM15.1758 42.8906V45.1758H8.49609H1.81641L1.78125 43.0078C1.76953 41.8242 1.78125 40.7812 1.80469 40.6992C1.85156 40.5703 3.17578 40.5469 8.51953 40.5703L15.1758 40.6055V42.8906ZM36.6562 42.9141L36.6797 45.2344H30H23.3203V42.9726C23.3203 41.7187 23.3555 40.6641 23.4023 40.6289C23.4375 40.582 26.4375 40.5586 30.0469 40.5703L36.6211 40.6055L36.6562 42.9141ZM15.0469 47.0625C15.2109 47.1211 15.2344 47.4375 15.2344 49.3945C15.2344 51.3516 15.2109 51.668 15.0469 51.7266C14.8125 51.8203 2.17969 51.8203 1.94531 51.7266C1.78125 51.668 1.75781 51.3516 1.75781 49.3945C1.75781 47.6953 1.79297 47.1094 1.91016 47.0742C2.12109 46.9805 14.8242 46.9805 15.0469 47.0625ZM36.6211 49.3945V51.7383H30H23.3789L23.3437 49.5117C23.332 48.293 23.3437 47.2266 23.3672 47.1445C23.4141 47.0156 24.7266 46.9922 30.0234 47.0156L36.6211 47.0508V49.3945ZM58.0547 47.0625C58.2187 47.1211 58.2422 47.4375 58.2422 49.3945C58.2422 51.3516 58.2187 51.668 58.0547 51.7266C57.8203 51.8203 45.1875 51.8203 44.9531 51.7266C44.7891 51.668 44.7656 51.3516 44.7656 49.3945C44.7656 47.6953 44.8008 47.1094 44.918 47.0742C45.1289 46.9805 57.832 46.9805 58.0547 47.0625ZM36.6562 55.8633L36.6211 58.1836H30H23.3789L23.3437 55.8633L23.3203 53.5547H30H36.6797L36.6562 55.8633ZM58.1836 55.8984V58.1836H51.5039H44.8242L44.7891 56.0156C44.7773 54.832 44.7891 53.7891 44.8125 53.707C44.8594 53.5781 46.1836 53.5547 51.5273 53.5781L58.1836 53.6133V55.8984Z" fill="#FF7443"/>
<path d="M3.32812 41.8477C3.15234 42.0469 3.10547 42.2695 3.10547 43.0078C3.10547 44.1094 3.29297 44.4141 3.98437 44.4141C4.67578 44.4141 4.86328 44.1094 4.86328 43.0078C4.86328 41.9062 4.67578 41.6016 3.98437 41.6016C3.69141 41.6016 3.48047 41.6836 3.32812 41.8477Z" fill="#FF7443"/>
<path d="M24.8438 41.8594C24.6562 42.0703 24.6094 42.2695 24.6094 43.0078C24.6094 44.0742 24.8203 44.4141 25.4883 44.4141C26.1562 44.4141 26.3672 44.0742 26.3672 43.0078C26.3672 41.9414 26.1562 41.6016 25.4883 41.6016C25.2305 41.6016 25.0078 41.6953 24.8438 41.8594Z" fill="#FF7443"/>
<path d="M3.43359 48.1641C2.94141 48.6094 2.94141 50.1797 3.43359 50.6367C3.75 50.9297 4.21875 50.918 4.53516 50.625C5.02734 50.1797 5.02734 48.6094 4.53516 48.1524C4.21875 47.8594 3.75 47.8711 3.43359 48.1641Z" fill="#FF7443"/>
<path d="M24.9023 48.2227C24.6445 48.4688 24.6094 48.6094 24.6094 49.3945C24.6094 50.1797 24.6445 50.3203 24.9023 50.5664C25.0547 50.7305 25.3242 50.8594 25.4883 50.8594C25.6523 50.8594 25.9219 50.7305 26.0742 50.5664C26.332 50.3203 26.3672 50.1797 26.3672 49.3945C26.3672 48.6094 26.332 48.4688 26.0742 48.2227C25.9219 48.0586 25.6523 47.9297 25.4883 47.9297C25.3242 47.9297 25.0547 48.0586 24.9023 48.2227Z" fill="#FF7443"/>
<path d="M46.4414 48.1641C45.9492 48.6094 45.9492 50.1797 46.4414 50.6367C46.7578 50.9297 47.2266 50.918 47.543 50.625C48.0351 50.1797 48.0351 48.6094 47.543 48.1524C47.2266 47.8594 46.7578 47.8711 46.4414 48.1641Z" fill="#FF7443"/>
<path d="M24.8438 54.6328C24.6562 54.8438 24.6094 55.043 24.6094 55.7812C24.6094 56.8477 24.8203 57.1875 25.4883 57.1875C26.1562 57.1875 26.3672 56.8477 26.3672 55.7812C26.3672 54.7148 26.1562 54.375 25.4883 54.375C25.2305 54.375 25.0078 54.4688 24.8438 54.6328Z" fill="#FF7443"/>
<path d="M46.3359 54.6211C46.1602 54.8203 46.1133 55.043 46.1133 55.7812C46.1133 56.8828 46.3008 57.1875 46.9922 57.1875C47.6836 57.1875 47.8711 56.8828 47.8711 55.7812C47.8711 54.6797 47.6836 54.375 46.9922 54.375C46.6992 54.375 46.4883 54.457 46.3359 54.6211Z" fill="#FF7443"/>
<path d="M27.8555 7.83984C24.3281 8.8125 21.6797 12.1172 21.6797 15.5508C21.6797 16.5 21.8555 16.7578 22.5234 16.7578C23.1328 16.7578 23.3086 16.4883 23.4375 15.3164C23.6367 13.582 24.3281 12.1992 25.5703 11.0742C26.8359 9.91406 28.2539 9.375 30.0586 9.375C31.5586 9.375 33.0469 9.87891 34.043 10.7109L34.3945 11.0039L33.9726 11.0156C33.3984 11.0156 32.8359 11.2266 32.6953 11.4844C32.5078 11.8359 32.5547 12.2813 32.8125 12.5391C33.0234 12.75 33.1992 12.7734 34.6758 12.7734C36.3867 12.7734 36.8203 12.6914 37.0078 12.3398C37.207 11.9648 37.3242 8.92969 37.1484 8.61328C36.9375 8.22656 36.457 8.07422 36.0117 8.26172C35.6133 8.42578 35.5078 8.625 35.5078 9.19922V9.58594L34.6055 8.97656C34.0664 8.625 33.2695 8.22656 32.6953 8.02734C31.8281 7.73438 31.5 7.6875 30.1758 7.65234C28.9687 7.62891 28.4883 7.66406 27.8555 7.83984Z" fill="#FF7443"/>
<path d="M36.8672 15.3398C36.7383 15.4805 36.6329 15.914 36.5626 16.5586C36.4922 17.1211 36.3399 17.8594 36.211 18.2109C35.6368 19.7226 34.3829 21.1055 32.9297 21.8437C31.8399 22.3828 31.0196 22.5351 29.5899 22.4765C28.2305 22.4062 27.4805 22.1601 26.3555 21.4101C25.6876 20.9765 25.6407 20.918 25.8985 20.8945C26.7071 20.789 26.9883 20.707 27.1993 20.4961C27.4922 20.2031 27.4805 19.6289 27.1876 19.3359C26.9766 19.125 26.8008 19.1015 25.3243 19.1015C23.6133 19.1015 23.1797 19.1836 22.9922 19.5351C22.793 19.9101 22.6758 22.9453 22.8516 23.2617C23.0626 23.6484 23.543 23.8008 23.9883 23.6133C24.3868 23.4492 24.4922 23.25 24.4922 22.6758V22.289L25.4063 22.8984C26.7422 23.789 27.9493 24.1758 29.6954 24.2344C30.7383 24.2695 31.2891 24.2344 31.9219 24.082C35.4376 23.25 38.086 20.168 38.2852 16.664C38.3438 15.7265 38.3204 15.5508 38.1446 15.3515C37.8633 15.0469 37.1368 15.0351 36.8672 15.3398Z" fill="#FF7443"/>
<path d="M46.3359 41.8477C46.1602 42.0469 46.1133 42.2695 46.1133 43.0078C46.1133 44.1094 46.3008 44.4141 46.9922 44.4141C47.6836 44.4141 47.8711 44.1094 47.8711 43.0078C47.8711 41.9062 47.6836 41.6016 46.9922 41.6016C46.6992 41.6016 46.4883 41.6836 46.3359 41.8477Z" fill="#FF7443"/>
<path d="M3.32812 54.6211C3.15234 54.8203 3.10547 55.043 3.10547 55.7812C3.10547 56.8828 3.29297 57.1875 3.98437 57.1875C4.67578 57.1875 4.86328 56.8828 4.86328 55.7812C4.86328 54.6797 4.67578 54.375 3.98437 54.375C3.69141 54.375 3.48047 54.457 3.32812 54.6211Z" fill="#FF7443"/>
</svg>
