<svg width="100" height="104" viewBox="0 0 100 104" fill="none" xmlns="http://www.w3.org/2000/svg">
<path d="M26.2078 81.4616C28.8574 81.4811 30.3784 81.5006 31.2922 81.5554C32.186 81.6089 32.6163 81.6977 32.9785 81.9483C33.2273 82.1162 33.4557 82.3019 33.6448 82.5435C33.8379 82.7901 33.971 83.07 34.0626 83.4042C34.237 84.0398 34.2727 84.9265 34.2727 86.2499C34.2727 87.5733 34.237 88.46 34.0626 89.0956C33.971 89.4297 33.8379 89.7097 33.6448 89.9563C33.4556 90.1979 33.2273 90.3836 32.9785 90.5515C32.6174 90.8013 32.1885 90.8907 31.3064 90.9467C30.4047 91.004 28.908 91.0284 26.307 91.0577L26.3057 91.0577C23.0273 91.0868 21.1974 91.0888 20.1014 90.9352C19.5422 90.8568 19.1157 90.7315 18.7671 90.5113C18.4138 90.2882 18.1913 89.9989 17.9927 89.7012C17.7543 89.349 17.6019 89.0516 17.5263 88.5225C17.4585 88.0478 17.45 87.3682 17.45 86.2499C17.45 85.1316 17.4585 84.452 17.5263 83.9773C17.602 83.4474 17.7548 83.1498 17.9939 82.7969L17.9939 82.7969L17.9953 82.7948C18.1598 82.5543 18.3861 82.3256 18.6171 82.1398C18.8457 81.9557 19.1126 81.7865 19.3724 81.6908L19.3762 81.6894C19.5688 81.6201 19.8369 81.5791 20.1495 81.5492C20.4764 81.518 20.9019 81.495 21.4382 81.4789C22.5114 81.4469 24.0583 81.4421 26.2078 81.4616ZM26.2078 81.4616C26.2076 81.4616 26.2074 81.4616 26.2072 81.4616L26.2031 82.0116M26.2078 81.4616C26.2079 81.4616 26.208 81.4616 26.2081 81.4616L26.2031 82.0116M26.2031 82.0116C31.5156 82.0507 32.2188 82.0897 32.668 82.4022L18.4492 83.1054C18.7031 82.7343 19.1914 82.3436 19.5625 82.2069C20.0508 82.0311 21.9062 81.9725 26.2031 82.0116ZM25.8667 87.028L30.243 86.9759V86.2499V85.5238L25.8667 85.4717L25.8645 85.4717L21.4797 85.4371V86.2499V87.0627L25.8645 87.0281L25.8667 87.028Z" fill="#FF7443" stroke="#FF7443" stroke-width="1.1"/>
<path d="M78.2554 76.6198L78.2585 76.619C79.4412 76.3261 80.8227 76.4296 82.1039 76.8086C83.3864 77.1879 84.6229 77.8592 85.5031 78.7609L85.5033 78.7611C88.7865 82.1285 88.2439 87.7454 84.3639 90.3813L84.3633 90.3817C80.4475 93.0343 75.148 91.5752 73.0713 87.2749L73.0713 87.2749L73.0698 87.2718C72.747 86.5929 72.5523 85.665 72.4811 84.7569C72.4098 83.8476 72.4569 82.8896 72.6655 82.1425C73.4008 79.4758 75.5993 77.2944 78.2554 76.6198ZM81.4444 80.7591L81.4422 80.758C79.1512 79.7045 76.4603 81.4571 76.4603 84.0865C76.4603 86.8405 79.1934 88.5299 81.6611 87.3051C84.353 85.9586 84.2647 82.041 81.4444 80.7591Z" fill="#FF7443" stroke="#FF7443" stroke-width="1.1"/>
<mask id="path-3-outside-1_8_50" maskUnits="userSpaceOnUse" x="0" y="-0.0319824" width="100" height="104" fill="black">
<rect fill="white" y="-0.0319824" width="100" height="104"/>
<path d="M42.7569 2.24146C37.4248 3.37427 31.1748 4.99536 29.8858 5.60083C28.0889 6.44067 26.0772 8.37427 25.3155 10.0149C24.2608 12.2415 24.1827 12.8665 24.2217 19.4875L24.2413 25.5813L23.6358 26.3235C22.6592 27.4954 22.3858 28.7454 22.4834 31.6165C22.542 33.5305 22.6397 34.2532 22.9131 34.7805C23.6358 36.1477 24.8467 37.0852 26.2725 37.3977C26.8584 37.5344 26.8975 37.593 27.21 39.2336C28.0694 43.5696 30.4913 47.4563 34.0069 50.054L35.3741 51.0696L35.2959 53.9211C35.1983 57.4368 35.0616 57.8274 33.8116 57.8274C32.8936 57.8274 16.3897 62.3196 13.9678 63.2375C9.59281 64.8782 6.37016 68.7844 5.37406 73.6477C4.47562 78.1204 4.51469 79.3508 5.54984 79.6243C6.78031 79.9368 7.42484 79.2727 7.67875 77.4563C8.04984 74.7805 8.63578 72.4758 9.29984 71.1477C10.5498 68.6282 12.9327 66.6165 15.8233 65.679C17.7959 65.0344 24.3975 63.2375 24.4756 63.3157C25.2959 64.4094 32.9717 72.9836 33.4405 73.3352C34.5538 74.175 35.5108 74.5071 36.9952 74.4875C38.1475 74.4875 38.9483 74.2727 42.1123 73.1985L45.8819 71.929L49.5342 73.1985C52.6592 74.2922 53.4014 74.4875 54.5928 74.5071C55.7647 74.5071 56.1553 74.429 57.2491 73.8821C58.46 73.2961 58.8311 72.9055 62.8936 68.2766C65.2764 65.5422 67.2881 63.2961 67.3467 63.2961C67.7373 63.2961 75.96 65.718 75.96 65.8352C75.96 65.9133 75.8233 66.2454 75.667 66.5383C75.5108 66.8508 75.3741 67.5149 75.3741 68.0032V68.9211L74.2803 69.3508L73.2061 69.8L72.4639 69.0774C71.585 68.218 70.5303 67.9055 69.4561 68.1985C68.5577 68.4329 65.7647 71.011 65.1983 72.1243C64.5342 73.4133 64.7686 74.6243 65.9014 75.7961L66.5459 76.4797L66.1358 77.4758L65.7256 78.4915L64.5342 78.6086C63.2452 78.7454 62.6202 79.0969 61.9366 80.093C61.5459 80.679 61.5069 80.9719 61.5069 83.3157C61.5069 85.6594 61.5459 85.9524 61.9561 86.5383C62.6592 87.5735 63.3233 87.9641 64.5928 88.0618L65.7256 88.1399L66.1358 89.1555L66.5459 90.1516L65.8038 90.9719C64.5733 92.2805 64.5147 93.804 65.628 95.1711L66.2139 95.9133H36.1163H6.01859L5.54984 95.4446C5.29594 95.1907 5.0225 94.761 4.96391 94.5071C4.88578 94.2336 5.15922 92.2024 5.53031 89.9563C5.92094 87.7297 6.23344 85.5618 6.23344 85.1711C6.23344 84.2922 5.70609 83.7454 4.84672 83.7454C3.69437 83.7454 3.55766 84.0969 2.69828 89.1946C2.17094 92.3 1.93656 94.1555 2.01469 94.7219C2.24906 96.4016 3.69437 98.1594 5.23734 98.6282C5.78422 98.7844 15.2373 98.843 40.667 98.843H75.335L75.4522 99.5266C75.6084 100.366 76.4288 101.363 77.2686 101.695C77.6788 101.87 78.6944 101.968 80.1983 101.968C82.2295 101.968 82.6006 101.909 83.2647 101.519C84.2217 100.972 84.7491 100.015 84.7491 98.7844V97.8469L85.8233 97.3586L86.8975 96.8508L87.7764 97.6321C88.2647 98.0618 88.9483 98.4719 89.2999 98.5305C90.5889 98.7649 91.1749 98.4719 93.0108 96.7141C94.9639 94.8196 95.2959 94.3118 95.2959 93.179C95.2959 92.261 94.9639 91.5188 94.2413 90.8547C93.6358 90.2883 93.6163 90.1516 94.1241 88.9993C94.4952 88.1204 94.5342 88.1008 95.3545 88.1008C96.4874 88.1008 97.8155 87.3977 98.3233 86.5383C98.6553 85.9524 98.7139 85.5032 98.7139 83.3157C98.7139 81.05 98.6749 80.6985 98.2842 80.093C97.7178 79.175 96.878 78.7258 95.5694 78.5891C94.4952 78.4719 94.4756 78.4524 94.1045 77.6125C93.6163 76.4797 93.6358 76.343 94.2413 75.7766C94.9639 75.1125 95.2959 74.3704 95.2959 73.4524C95.2959 72.3196 94.9639 71.8118 93.1084 69.9954C91.9366 68.8625 91.253 68.3547 90.6866 68.1985C89.6514 67.925 88.6358 68.218 87.6788 69.0774L86.9366 69.761L86.0772 69.429C84.8663 68.9407 84.7491 68.8235 84.7491 67.8079C84.7491 65.9719 83.3624 64.6633 81.4092 64.6633C80.7256 64.6633 80.1983 64.5071 79.5342 64.1165C79.0264 63.8235 78.0694 63.3743 77.4249 63.1399C75.0811 62.2805 58.6944 57.8274 57.8545 57.8274C56.6045 57.8274 56.4288 57.3586 56.4288 53.843V51.0305L57.7569 49.9954C61.1748 47.3 63.2061 44.2141 64.2413 40.1125C64.4561 39.2922 64.6319 38.3938 64.6319 38.1008C64.6319 37.6516 64.7491 37.554 65.6084 37.3391C66.9756 36.9875 68.0108 36.1672 68.6163 34.9563C69.085 33.9797 69.1241 33.7649 69.1241 31.1282C69.1241 27.9641 68.9483 27.3196 67.8545 26.1868C67.2295 25.5422 67.1905 25.4446 67.3663 24.8196C67.6397 23.8821 67.6202 18.0032 67.3467 17.2219C66.9756 16.1868 65.7647 15.8743 65.0225 16.6165C64.6709 16.968 64.6319 17.261 64.6319 19.5461C64.6319 21.6946 64.5928 22.0852 64.3389 22.0852C64.1631 22.0852 63.0108 21.7922 61.7413 21.4211C51.3116 18.3547 39.8077 18.4133 29.3194 21.5774L27.1123 22.2415L27.1709 17.5149L27.2295 12.7883L27.8741 11.4993C28.6358 9.93677 30.0811 8.58911 31.5459 8.04224C32.0928 7.82739 34.9834 7.06567 37.9913 6.34302C45.4913 4.52661 45.4913 4.52661 53.5577 6.42114C61.1163 8.17896 61.7608 8.47192 63.4795 10.9719C64.2998 12.1829 64.9053 12.4954 65.7647 12.0852C66.0381 11.9485 66.3702 11.5774 66.4678 11.2844C67.0342 9.68286 63.4014 5.93286 60.4327 5.05396C60.1202 4.9563 57.1709 4.27271 53.8897 3.51099C47.3077 1.96802 45.1983 1.73364 42.7569 2.24146ZM51.7413 22.3782C55.1592 22.7883 58.6163 23.4915 61.6436 24.429C62.9913 24.8391 64.1045 25.2102 64.1631 25.2493C64.3389 25.4446 63.7725 26.8704 63.3623 27.2805C62.7569 27.886 62.0342 27.886 59.71 27.261C50.4327 24.8 40.8038 24.8 31.917 27.261C29.7686 27.8469 28.8311 27.886 28.3233 27.3782C27.8545 26.9094 27.3858 25.4641 27.6397 25.2297C28.2647 24.6633 35.8038 22.8665 39.0459 22.4954C40.0616 22.3782 41.1748 22.2415 41.4873 22.2024C43.2061 22.0071 49.3975 22.1243 51.7413 22.3782ZM50.3936 28.5305C53.2452 28.8235 56.7608 29.468 59.1241 30.1125C62.3467 31.0305 63.9483 30.8352 65.4717 29.3508L66.1944 28.6477V31.0696C66.1748 32.6907 66.0967 33.6086 65.9405 33.8235C65.5303 34.3508 64.8858 34.5852 63.8506 34.5852C62.5811 34.5852 61.8975 35.1711 61.8975 36.2844C61.8975 37.8274 61.1358 40.6594 60.2569 42.4758C57.6202 47.9055 51.0772 51.5774 44.8272 51.1282C39.0069 50.6985 33.8116 47.3391 31.4092 42.4954C30.5694 40.7766 29.8663 38.2961 29.8663 37.0266C29.8663 35.9133 29.5538 35.0735 29.0264 34.8196C28.792 34.7024 28.0889 34.5852 27.4639 34.5266C25.667 34.4094 25.4913 34.1165 25.4131 31.2649C25.3741 29.9758 25.3936 28.9211 25.4717 28.9211C25.5498 28.9211 25.9209 29.1946 26.3116 29.5266C27.9131 30.9329 29.1436 31.0305 32.9913 30.0344C38.8897 28.511 44.9053 27.9836 50.3936 28.5305ZM42.1514 53.7258C45.4131 54.3899 48.8702 54.1555 52.0733 53.0618L53.46 52.593L53.5381 55.1516C53.5967 57.5344 53.6358 57.8079 54.1436 58.6868C54.4366 59.2141 54.6709 59.7024 54.6709 59.8C54.6709 59.8782 52.6788 61.8508 50.2569 64.1555L45.8233 68.3743L42.5811 65.2883C40.8038 63.5891 38.792 61.675 38.1084 61.0305L36.8975 59.8782L37.5225 58.6282C38.1084 57.4758 38.1475 57.2219 38.2256 54.9758L38.3038 52.5735L39.2608 52.9446C39.7881 53.1594 41.0772 53.511 42.1514 53.7258ZM38.2452 65.1907C40.8233 67.6321 42.8936 69.6829 42.835 69.761C42.6592 70.0344 37.7959 71.5579 37.0733 71.5579C35.6866 71.5579 35.2373 71.1868 31.6827 67.1243C29.7881 64.9563 28.0694 63.0227 27.8741 62.7883C27.5225 62.3977 27.5225 62.3977 30.2959 61.5969C31.8389 61.1477 33.2061 60.7766 33.3428 60.7766C33.46 60.7571 35.6866 62.7493 38.2452 65.1907ZM61.0967 61.5383C62.6397 61.968 63.9483 62.3586 63.9873 62.3977C64.085 62.4954 57.6592 69.8391 56.7022 70.7571C56.0186 71.3625 54.7881 71.7336 53.9873 71.5383C52.7959 71.2454 48.8116 69.8391 48.8116 69.7024C48.8116 69.5657 58.0303 60.7571 58.1866 60.7571C58.2452 60.7571 59.5538 61.1086 61.0967 61.5383ZM81.8975 68.7258C82.0928 70.4055 82.5616 71.0305 84.2608 71.8118C86.7413 72.9641 87.6788 72.9446 89.085 71.6946L89.9639 70.9329L91.1944 72.1829L92.4249 73.4133L91.7217 74.2532C90.5499 75.6204 90.5303 76.7727 91.6045 79.136C92.3858 80.8352 93.0108 81.3235 94.6124 81.4602L95.7842 81.5579V83.3157V85.0735L94.71 85.1711C92.9913 85.3469 92.4249 85.7571 91.6436 87.4563C90.5108 89.8977 90.5303 91.011 91.7217 92.3782L92.4249 93.218L91.1944 94.4485L89.9639 95.6985L89.085 94.9368C87.6983 93.7063 86.7608 93.7063 84.0264 94.9368C82.5616 95.6008 82.0733 96.2844 81.8975 97.9055L81.7608 99.0383H80.042H78.3038V98.1985C78.3038 97.7297 78.1084 96.9875 77.8741 96.4993C77.4834 95.7375 77.2295 95.5227 75.8819 94.8586C73.4209 93.6477 72.2881 93.7258 70.7842 95.1516L70.1788 95.718L68.9288 94.4485L67.6983 93.1985L68.4014 92.4172C68.792 91.9875 69.2022 91.2844 69.3389 90.8547C69.5538 90.1516 69.5147 89.9172 69.0459 88.6477C68.0694 85.9329 67.2881 85.1711 65.4717 85.1711H64.4366V83.3157V81.4602H65.4717C67.2881 81.4602 68.0694 80.6985 69.0459 77.9836C69.5147 76.7141 69.5538 76.4797 69.3389 75.7766C69.2022 75.3469 68.792 74.6438 68.4014 74.2141L67.6788 73.4329L68.8897 72.2219C69.8077 71.304 70.1592 71.0696 70.3741 71.2063C70.5303 71.3235 70.9795 71.6555 71.3897 71.9875C72.0147 72.4758 72.2881 72.5735 73.2256 72.5735C74.1045 72.5735 74.6123 72.4368 75.8623 71.7922C77.7374 70.8547 78.1084 70.386 78.2452 68.804L78.3624 67.593H80.0616H81.7608L81.8975 68.7258Z"/>
</mask>
<path d="M42.7569 2.24146C37.4248 3.37427 31.1748 4.99536 29.8858 5.60083C28.0889 6.44067 26.0772 8.37427 25.3155 10.0149C24.2608 12.2415 24.1827 12.8665 24.2217 19.4875L24.2413 25.5813L23.6358 26.3235C22.6592 27.4954 22.3858 28.7454 22.4834 31.6165C22.542 33.5305 22.6397 34.2532 22.9131 34.7805C23.6358 36.1477 24.8467 37.0852 26.2725 37.3977C26.8584 37.5344 26.8975 37.593 27.21 39.2336C28.0694 43.5696 30.4913 47.4563 34.0069 50.054L35.3741 51.0696L35.2959 53.9211C35.1983 57.4368 35.0616 57.8274 33.8116 57.8274C32.8936 57.8274 16.3897 62.3196 13.9678 63.2375C9.59281 64.8782 6.37016 68.7844 5.37406 73.6477C4.47562 78.1204 4.51469 79.3508 5.54984 79.6243C6.78031 79.9368 7.42484 79.2727 7.67875 77.4563C8.04984 74.7805 8.63578 72.4758 9.29984 71.1477C10.5498 68.6282 12.9327 66.6165 15.8233 65.679C17.7959 65.0344 24.3975 63.2375 24.4756 63.3157C25.2959 64.4094 32.9717 72.9836 33.4405 73.3352C34.5538 74.175 35.5108 74.5071 36.9952 74.4875C38.1475 74.4875 38.9483 74.2727 42.1123 73.1985L45.8819 71.929L49.5342 73.1985C52.6592 74.2922 53.4014 74.4875 54.5928 74.5071C55.7647 74.5071 56.1553 74.429 57.2491 73.8821C58.46 73.2961 58.8311 72.9055 62.8936 68.2766C65.2764 65.5422 67.2881 63.2961 67.3467 63.2961C67.7373 63.2961 75.96 65.718 75.96 65.8352C75.96 65.9133 75.8233 66.2454 75.667 66.5383C75.5108 66.8508 75.3741 67.5149 75.3741 68.0032V68.9211L74.2803 69.3508L73.2061 69.8L72.4639 69.0774C71.585 68.218 70.5303 67.9055 69.4561 68.1985C68.5577 68.4329 65.7647 71.011 65.1983 72.1243C64.5342 73.4133 64.7686 74.6243 65.9014 75.7961L66.5459 76.4797L66.1358 77.4758L65.7256 78.4915L64.5342 78.6086C63.2452 78.7454 62.6202 79.0969 61.9366 80.093C61.5459 80.679 61.5069 80.9719 61.5069 83.3157C61.5069 85.6594 61.5459 85.9524 61.9561 86.5383C62.6592 87.5735 63.3233 87.9641 64.5928 88.0618L65.7256 88.1399L66.1358 89.1555L66.5459 90.1516L65.8038 90.9719C64.5733 92.2805 64.5147 93.804 65.628 95.1711L66.2139 95.9133H36.1163H6.01859L5.54984 95.4446C5.29594 95.1907 5.0225 94.761 4.96391 94.5071C4.88578 94.2336 5.15922 92.2024 5.53031 89.9563C5.92094 87.7297 6.23344 85.5618 6.23344 85.1711C6.23344 84.2922 5.70609 83.7454 4.84672 83.7454C3.69437 83.7454 3.55766 84.0969 2.69828 89.1946C2.17094 92.3 1.93656 94.1555 2.01469 94.7219C2.24906 96.4016 3.69437 98.1594 5.23734 98.6282C5.78422 98.7844 15.2373 98.843 40.667 98.843H75.335L75.4522 99.5266C75.6084 100.366 76.4288 101.363 77.2686 101.695C77.6788 101.87 78.6944 101.968 80.1983 101.968C82.2295 101.968 82.6006 101.909 83.2647 101.519C84.2217 100.972 84.7491 100.015 84.7491 98.7844V97.8469L85.8233 97.3586L86.8975 96.8508L87.7764 97.6321C88.2647 98.0618 88.9483 98.4719 89.2999 98.5305C90.5889 98.7649 91.1749 98.4719 93.0108 96.7141C94.9639 94.8196 95.2959 94.3118 95.2959 93.179C95.2959 92.261 94.9639 91.5188 94.2413 90.8547C93.6358 90.2883 93.6163 90.1516 94.1241 88.9993C94.4952 88.1204 94.5342 88.1008 95.3545 88.1008C96.4874 88.1008 97.8155 87.3977 98.3233 86.5383C98.6553 85.9524 98.7139 85.5032 98.7139 83.3157C98.7139 81.05 98.6749 80.6985 98.2842 80.093C97.7178 79.175 96.878 78.7258 95.5694 78.5891C94.4952 78.4719 94.4756 78.4524 94.1045 77.6125C93.6163 76.4797 93.6358 76.343 94.2413 75.7766C94.9639 75.1125 95.2959 74.3704 95.2959 73.4524C95.2959 72.3196 94.9639 71.8118 93.1084 69.9954C91.9366 68.8625 91.253 68.3547 90.6866 68.1985C89.6514 67.925 88.6358 68.218 87.6788 69.0774L86.9366 69.761L86.0772 69.429C84.8663 68.9407 84.7491 68.8235 84.7491 67.8079C84.7491 65.9719 83.3624 64.6633 81.4092 64.6633C80.7256 64.6633 80.1983 64.5071 79.5342 64.1165C79.0264 63.8235 78.0694 63.3743 77.4249 63.1399C75.0811 62.2805 58.6944 57.8274 57.8545 57.8274C56.6045 57.8274 56.4288 57.3586 56.4288 53.843V51.0305L57.7569 49.9954C61.1748 47.3 63.2061 44.2141 64.2413 40.1125C64.4561 39.2922 64.6319 38.3938 64.6319 38.1008C64.6319 37.6516 64.7491 37.554 65.6084 37.3391C66.9756 36.9875 68.0108 36.1672 68.6163 34.9563C69.085 33.9797 69.1241 33.7649 69.1241 31.1282C69.1241 27.9641 68.9483 27.3196 67.8545 26.1868C67.2295 25.5422 67.1905 25.4446 67.3663 24.8196C67.6397 23.8821 67.6202 18.0032 67.3467 17.2219C66.9756 16.1868 65.7647 15.8743 65.0225 16.6165C64.6709 16.968 64.6319 17.261 64.6319 19.5461C64.6319 21.6946 64.5928 22.0852 64.3389 22.0852C64.1631 22.0852 63.0108 21.7922 61.7413 21.4211C51.3116 18.3547 39.8077 18.4133 29.3194 21.5774L27.1123 22.2415L27.1709 17.5149L27.2295 12.7883L27.8741 11.4993C28.6358 9.93677 30.0811 8.58911 31.5459 8.04224C32.0928 7.82739 34.9834 7.06567 37.9913 6.34302C45.4913 4.52661 45.4913 4.52661 53.5577 6.42114C61.1163 8.17896 61.7608 8.47192 63.4795 10.9719C64.2998 12.1829 64.9053 12.4954 65.7647 12.0852C66.0381 11.9485 66.3702 11.5774 66.4678 11.2844C67.0342 9.68286 63.4014 5.93286 60.4327 5.05396C60.1202 4.9563 57.1709 4.27271 53.8897 3.51099C47.3077 1.96802 45.1983 1.73364 42.7569 2.24146ZM51.7413 22.3782C55.1592 22.7883 58.6163 23.4915 61.6436 24.429C62.9913 24.8391 64.1045 25.2102 64.1631 25.2493C64.3389 25.4446 63.7725 26.8704 63.3623 27.2805C62.7569 27.886 62.0342 27.886 59.71 27.261C50.4327 24.8 40.8038 24.8 31.917 27.261C29.7686 27.8469 28.8311 27.886 28.3233 27.3782C27.8545 26.9094 27.3858 25.4641 27.6397 25.2297C28.2647 24.6633 35.8038 22.8665 39.0459 22.4954C40.0616 22.3782 41.1748 22.2415 41.4873 22.2024C43.2061 22.0071 49.3975 22.1243 51.7413 22.3782ZM50.3936 28.5305C53.2452 28.8235 56.7608 29.468 59.1241 30.1125C62.3467 31.0305 63.9483 30.8352 65.4717 29.3508L66.1944 28.6477V31.0696C66.1748 32.6907 66.0967 33.6086 65.9405 33.8235C65.5303 34.3508 64.8858 34.5852 63.8506 34.5852C62.5811 34.5852 61.8975 35.1711 61.8975 36.2844C61.8975 37.8274 61.1358 40.6594 60.2569 42.4758C57.6202 47.9055 51.0772 51.5774 44.8272 51.1282C39.0069 50.6985 33.8116 47.3391 31.4092 42.4954C30.5694 40.7766 29.8663 38.2961 29.8663 37.0266C29.8663 35.9133 29.5538 35.0735 29.0264 34.8196C28.792 34.7024 28.0889 34.5852 27.4639 34.5266C25.667 34.4094 25.4913 34.1165 25.4131 31.2649C25.3741 29.9758 25.3936 28.9211 25.4717 28.9211C25.5498 28.9211 25.9209 29.1946 26.3116 29.5266C27.9131 30.9329 29.1436 31.0305 32.9913 30.0344C38.8897 28.511 44.9053 27.9836 50.3936 28.5305ZM42.1514 53.7258C45.4131 54.3899 48.8702 54.1555 52.0733 53.0618L53.46 52.593L53.5381 55.1516C53.5967 57.5344 53.6358 57.8079 54.1436 58.6868C54.4366 59.2141 54.6709 59.7024 54.6709 59.8C54.6709 59.8782 52.6788 61.8508 50.2569 64.1555L45.8233 68.3743L42.5811 65.2883C40.8038 63.5891 38.792 61.675 38.1084 61.0305L36.8975 59.8782L37.5225 58.6282C38.1084 57.4758 38.1475 57.2219 38.2256 54.9758L38.3038 52.5735L39.2608 52.9446C39.7881 53.1594 41.0772 53.511 42.1514 53.7258ZM38.2452 65.1907C40.8233 67.6321 42.8936 69.6829 42.835 69.761C42.6592 70.0344 37.7959 71.5579 37.0733 71.5579C35.6866 71.5579 35.2373 71.1868 31.6827 67.1243C29.7881 64.9563 28.0694 63.0227 27.8741 62.7883C27.5225 62.3977 27.5225 62.3977 30.2959 61.5969C31.8389 61.1477 33.2061 60.7766 33.3428 60.7766C33.46 60.7571 35.6866 62.7493 38.2452 65.1907ZM61.0967 61.5383C62.6397 61.968 63.9483 62.3586 63.9873 62.3977C64.085 62.4954 57.6592 69.8391 56.7022 70.7571C56.0186 71.3625 54.7881 71.7336 53.9873 71.5383C52.7959 71.2454 48.8116 69.8391 48.8116 69.7024C48.8116 69.5657 58.0303 60.7571 58.1866 60.7571C58.2452 60.7571 59.5538 61.1086 61.0967 61.5383ZM81.8975 68.7258C82.0928 70.4055 82.5616 71.0305 84.2608 71.8118C86.7413 72.9641 87.6788 72.9446 89.085 71.6946L89.9639 70.9329L91.1944 72.1829L92.4249 73.4133L91.7217 74.2532C90.5499 75.6204 90.5303 76.7727 91.6045 79.136C92.3858 80.8352 93.0108 81.3235 94.6124 81.4602L95.7842 81.5579V83.3157V85.0735L94.71 85.1711C92.9913 85.3469 92.4249 85.7571 91.6436 87.4563C90.5108 89.8977 90.5303 91.011 91.7217 92.3782L92.4249 93.218L91.1944 94.4485L89.9639 95.6985L89.085 94.9368C87.6983 93.7063 86.7608 93.7063 84.0264 94.9368C82.5616 95.6008 82.0733 96.2844 81.8975 97.9055L81.7608 99.0383H80.042H78.3038V98.1985C78.3038 97.7297 78.1084 96.9875 77.8741 96.4993C77.4834 95.7375 77.2295 95.5227 75.8819 94.8586C73.4209 93.6477 72.2881 93.7258 70.7842 95.1516L70.1788 95.718L68.9288 94.4485L67.6983 93.1985L68.4014 92.4172C68.792 91.9875 69.2022 91.2844 69.3389 90.8547C69.5538 90.1516 69.5147 89.9172 69.0459 88.6477C68.0694 85.9329 67.2881 85.1711 65.4717 85.1711H64.4366V83.3157V81.4602H65.4717C67.2881 81.4602 68.0694 80.6985 69.0459 77.9836C69.5147 76.7141 69.5538 76.4797 69.3389 75.7766C69.2022 75.3469 68.792 74.6438 68.4014 74.2141L67.6788 73.4329L68.8897 72.2219C69.8077 71.304 70.1592 71.0696 70.3741 71.2063C70.5303 71.3235 70.9795 71.6555 71.3897 71.9875C72.0147 72.4758 72.2881 72.5735 73.2256 72.5735C74.1045 72.5735 74.6123 72.4368 75.8623 71.7922C77.7374 70.8547 78.1084 70.386 78.2452 68.804L78.3624 67.593H80.0616H81.7608L81.8975 68.7258Z" fill="#FF7443"/>
<path d="M42.7569 2.24146C37.4248 3.37427 31.1748 4.99536 29.8858 5.60083C28.0889 6.44067 26.0772 8.37427 25.3155 10.0149C24.2608 12.2415 24.1827 12.8665 24.2217 19.4875L24.2413 25.5813L23.6358 26.3235C22.6592 27.4954 22.3858 28.7454 22.4834 31.6165C22.542 33.5305 22.6397 34.2532 22.9131 34.7805C23.6358 36.1477 24.8467 37.0852 26.2725 37.3977C26.8584 37.5344 26.8975 37.593 27.21 39.2336C28.0694 43.5696 30.4913 47.4563 34.0069 50.054L35.3741 51.0696L35.2959 53.9211C35.1983 57.4368 35.0616 57.8274 33.8116 57.8274C32.8936 57.8274 16.3897 62.3196 13.9678 63.2375C9.59281 64.8782 6.37016 68.7844 5.37406 73.6477C4.47562 78.1204 4.51469 79.3508 5.54984 79.6243C6.78031 79.9368 7.42484 79.2727 7.67875 77.4563C8.04984 74.7805 8.63578 72.4758 9.29984 71.1477C10.5498 68.6282 12.9327 66.6165 15.8233 65.679C17.7959 65.0344 24.3975 63.2375 24.4756 63.3157C25.2959 64.4094 32.9717 72.9836 33.4405 73.3352C34.5538 74.175 35.5108 74.5071 36.9952 74.4875C38.1475 74.4875 38.9483 74.2727 42.1123 73.1985L45.8819 71.929L49.5342 73.1985C52.6592 74.2922 53.4014 74.4875 54.5928 74.5071C55.7647 74.5071 56.1553 74.429 57.2491 73.8821C58.46 73.2961 58.8311 72.9055 62.8936 68.2766C65.2764 65.5422 67.2881 63.2961 67.3467 63.2961C67.7373 63.2961 75.96 65.718 75.96 65.8352C75.96 65.9133 75.8233 66.2454 75.667 66.5383C75.5108 66.8508 75.3741 67.5149 75.3741 68.0032V68.9211L74.2803 69.3508L73.2061 69.8L72.4639 69.0774C71.585 68.218 70.5303 67.9055 69.4561 68.1985C68.5577 68.4329 65.7647 71.011 65.1983 72.1243C64.5342 73.4133 64.7686 74.6243 65.9014 75.7961L66.5459 76.4797L66.1358 77.4758L65.7256 78.4915L64.5342 78.6086C63.2452 78.7454 62.6202 79.0969 61.9366 80.093C61.5459 80.679 61.5069 80.9719 61.5069 83.3157C61.5069 85.6594 61.5459 85.9524 61.9561 86.5383C62.6592 87.5735 63.3233 87.9641 64.5928 88.0618L65.7256 88.1399L66.1358 89.1555L66.5459 90.1516L65.8038 90.9719C64.5733 92.2805 64.5147 93.804 65.628 95.1711L66.2139 95.9133H36.1163H6.01859L5.54984 95.4446C5.29594 95.1907 5.0225 94.761 4.96391 94.5071C4.88578 94.2336 5.15922 92.2024 5.53031 89.9563C5.92094 87.7297 6.23344 85.5618 6.23344 85.1711C6.23344 84.2922 5.70609 83.7454 4.84672 83.7454C3.69437 83.7454 3.55766 84.0969 2.69828 89.1946C2.17094 92.3 1.93656 94.1555 2.01469 94.7219C2.24906 96.4016 3.69437 98.1594 5.23734 98.6282C5.78422 98.7844 15.2373 98.843 40.667 98.843H75.335L75.4522 99.5266C75.6084 100.366 76.4288 101.363 77.2686 101.695C77.6788 101.87 78.6944 101.968 80.1983 101.968C82.2295 101.968 82.6006 101.909 83.2647 101.519C84.2217 100.972 84.7491 100.015 84.7491 98.7844V97.8469L85.8233 97.3586L86.8975 96.8508L87.7764 97.6321C88.2647 98.0618 88.9483 98.4719 89.2999 98.5305C90.5889 98.7649 91.1749 98.4719 93.0108 96.7141C94.9639 94.8196 95.2959 94.3118 95.2959 93.179C95.2959 92.261 94.9639 91.5188 94.2413 90.8547C93.6358 90.2883 93.6163 90.1516 94.1241 88.9993C94.4952 88.1204 94.5342 88.1008 95.3545 88.1008C96.4874 88.1008 97.8155 87.3977 98.3233 86.5383C98.6553 85.9524 98.7139 85.5032 98.7139 83.3157C98.7139 81.05 98.6749 80.6985 98.2842 80.093C97.7178 79.175 96.878 78.7258 95.5694 78.5891C94.4952 78.4719 94.4756 78.4524 94.1045 77.6125C93.6163 76.4797 93.6358 76.343 94.2413 75.7766C94.9639 75.1125 95.2959 74.3704 95.2959 73.4524C95.2959 72.3196 94.9639 71.8118 93.1084 69.9954C91.9366 68.8625 91.253 68.3547 90.6866 68.1985C89.6514 67.925 88.6358 68.218 87.6788 69.0774L86.9366 69.761L86.0772 69.429C84.8663 68.9407 84.7491 68.8235 84.7491 67.8079C84.7491 65.9719 83.3624 64.6633 81.4092 64.6633C80.7256 64.6633 80.1983 64.5071 79.5342 64.1165C79.0264 63.8235 78.0694 63.3743 77.4249 63.1399C75.0811 62.2805 58.6944 57.8274 57.8545 57.8274C56.6045 57.8274 56.4288 57.3586 56.4288 53.843V51.0305L57.7569 49.9954C61.1748 47.3 63.2061 44.2141 64.2413 40.1125C64.4561 39.2922 64.6319 38.3938 64.6319 38.1008C64.6319 37.6516 64.7491 37.554 65.6084 37.3391C66.9756 36.9875 68.0108 36.1672 68.6163 34.9563C69.085 33.9797 69.1241 33.7649 69.1241 31.1282C69.1241 27.9641 68.9483 27.3196 67.8545 26.1868C67.2295 25.5422 67.1905 25.4446 67.3663 24.8196C67.6397 23.8821 67.6202 18.0032 67.3467 17.2219C66.9756 16.1868 65.7647 15.8743 65.0225 16.6165C64.6709 16.968 64.6319 17.261 64.6319 19.5461C64.6319 21.6946 64.5928 22.0852 64.3389 22.0852C64.1631 22.0852 63.0108 21.7922 61.7413 21.4211C51.3116 18.3547 39.8077 18.4133 29.3194 21.5774L27.1123 22.2415L27.1709 17.5149L27.2295 12.7883L27.8741 11.4993C28.6358 9.93677 30.0811 8.58911 31.5459 8.04224C32.0928 7.82739 34.9834 7.06567 37.9913 6.34302C45.4913 4.52661 45.4913 4.52661 53.5577 6.42114C61.1163 8.17896 61.7608 8.47192 63.4795 10.9719C64.2998 12.1829 64.9053 12.4954 65.7647 12.0852C66.0381 11.9485 66.3702 11.5774 66.4678 11.2844C67.0342 9.68286 63.4014 5.93286 60.4327 5.05396C60.1202 4.9563 57.1709 4.27271 53.8897 3.51099C47.3077 1.96802 45.1983 1.73364 42.7569 2.24146ZM51.7413 22.3782C55.1592 22.7883 58.6163 23.4915 61.6436 24.429C62.9913 24.8391 64.1045 25.2102 64.1631 25.2493C64.3389 25.4446 63.7725 26.8704 63.3623 27.2805C62.7569 27.886 62.0342 27.886 59.71 27.261C50.4327 24.8 40.8038 24.8 31.917 27.261C29.7686 27.8469 28.8311 27.886 28.3233 27.3782C27.8545 26.9094 27.3858 25.4641 27.6397 25.2297C28.2647 24.6633 35.8038 22.8665 39.0459 22.4954C40.0616 22.3782 41.1748 22.2415 41.4873 22.2024C43.2061 22.0071 49.3975 22.1243 51.7413 22.3782ZM50.3936 28.5305C53.2452 28.8235 56.7608 29.468 59.1241 30.1125C62.3467 31.0305 63.9483 30.8352 65.4717 29.3508L66.1944 28.6477V31.0696C66.1748 32.6907 66.0967 33.6086 65.9405 33.8235C65.5303 34.3508 64.8858 34.5852 63.8506 34.5852C62.5811 34.5852 61.8975 35.1711 61.8975 36.2844C61.8975 37.8274 61.1358 40.6594 60.2569 42.4758C57.6202 47.9055 51.0772 51.5774 44.8272 51.1282C39.0069 50.6985 33.8116 47.3391 31.4092 42.4954C30.5694 40.7766 29.8663 38.2961 29.8663 37.0266C29.8663 35.9133 29.5538 35.0735 29.0264 34.8196C28.792 34.7024 28.0889 34.5852 27.4639 34.5266C25.667 34.4094 25.4913 34.1165 25.4131 31.2649C25.3741 29.9758 25.3936 28.9211 25.4717 28.9211C25.5498 28.9211 25.9209 29.1946 26.3116 29.5266C27.9131 30.9329 29.1436 31.0305 32.9913 30.0344C38.8897 28.511 44.9053 27.9836 50.3936 28.5305ZM42.1514 53.7258C45.4131 54.3899 48.8702 54.1555 52.0733 53.0618L53.46 52.593L53.5381 55.1516C53.5967 57.5344 53.6358 57.8079 54.1436 58.6868C54.4366 59.2141 54.6709 59.7024 54.6709 59.8C54.6709 59.8782 52.6788 61.8508 50.2569 64.1555L45.8233 68.3743L42.5811 65.2883C40.8038 63.5891 38.792 61.675 38.1084 61.0305L36.8975 59.8782L37.5225 58.6282C38.1084 57.4758 38.1475 57.2219 38.2256 54.9758L38.3038 52.5735L39.2608 52.9446C39.7881 53.1594 41.0772 53.511 42.1514 53.7258ZM38.2452 65.1907C40.8233 67.6321 42.8936 69.6829 42.835 69.761C42.6592 70.0344 37.7959 71.5579 37.0733 71.5579C35.6866 71.5579 35.2373 71.1868 31.6827 67.1243C29.7881 64.9563 28.0694 63.0227 27.8741 62.7883C27.5225 62.3977 27.5225 62.3977 30.2959 61.5969C31.8389 61.1477 33.2061 60.7766 33.3428 60.7766C33.46 60.7571 35.6866 62.7493 38.2452 65.1907ZM61.0967 61.5383C62.6397 61.968 63.9483 62.3586 63.9873 62.3977C64.085 62.4954 57.6592 69.8391 56.7022 70.7571C56.0186 71.3625 54.7881 71.7336 53.9873 71.5383C52.7959 71.2454 48.8116 69.8391 48.8116 69.7024C48.8116 69.5657 58.0303 60.7571 58.1866 60.7571C58.2452 60.7571 59.5538 61.1086 61.0967 61.5383ZM81.8975 68.7258C82.0928 70.4055 82.5616 71.0305 84.2608 71.8118C86.7413 72.9641 87.6788 72.9446 89.085 71.6946L89.9639 70.9329L91.1944 72.1829L92.4249 73.4133L91.7217 74.2532C90.5499 75.6204 90.5303 76.7727 91.6045 79.136C92.3858 80.8352 93.0108 81.3235 94.6124 81.4602L95.7842 81.5579V83.3157V85.0735L94.71 85.1711C92.9913 85.3469 92.4249 85.7571 91.6436 87.4563C90.5108 89.8977 90.5303 91.011 91.7217 92.3782L92.4249 93.218L91.1944 94.4485L89.9639 95.6985L89.085 94.9368C87.6983 93.7063 86.7608 93.7063 84.0264 94.9368C82.5616 95.6008 82.0733 96.2844 81.8975 97.9055L81.7608 99.0383H80.042H78.3038V98.1985C78.3038 97.7297 78.1084 96.9875 77.8741 96.4993C77.4834 95.7375 77.2295 95.5227 75.8819 94.8586C73.4209 93.6477 72.2881 93.7258 70.7842 95.1516L70.1788 95.718L68.9288 94.4485L67.6983 93.1985L68.4014 92.4172C68.792 91.9875 69.2022 91.2844 69.3389 90.8547C69.5538 90.1516 69.5147 89.9172 69.0459 88.6477C68.0694 85.9329 67.2881 85.1711 65.4717 85.1711H64.4366V83.3157V81.4602H65.4717C67.2881 81.4602 68.0694 80.6985 69.0459 77.9836C69.5147 76.7141 69.5538 76.4797 69.3389 75.7766C69.2022 75.3469 68.792 74.6438 68.4014 74.2141L67.6788 73.4329L68.8897 72.2219C69.8077 71.304 70.1592 71.0696 70.3741 71.2063C70.5303 71.3235 70.9795 71.6555 71.3897 71.9875C72.0147 72.4758 72.2881 72.5735 73.2256 72.5735C74.1045 72.5735 74.6123 72.4368 75.8623 71.7922C77.7374 70.8547 78.1084 70.386 78.2452 68.804L78.3624 67.593H80.0616H81.7608L81.8975 68.7258Z" stroke="#FF7443" stroke-width="2.2" mask="url(#path-3-outside-1_8_50)"/>
</svg>
