<svg width="101" height="106" viewBox="0 0 101 106" fill="none" xmlns="http://www.w3.org/2000/svg">
<path d="M43.7262 0.820462C35.0657 2.03297 27.1303 5.49443 19.9978 11.1631C17.0907 13.4885 12.2581 18.663 10.1007 21.7604C4.78477 29.4418 1.68276 37.8194 0.698822 47.0787C0.396418 50.117 0.461242 56.7614 0.822868 59.7933C1.98727 69.0316 5.25214 77.3471 10.7169 84.9233C12.9343 87.978 17.8669 93.0572 20.8189 95.3255C28.1394 100.915 36.1209 104.18 44.94 105.222C47.8339 105.542 54.1617 105.48 57.0488 105.104C65.846 103.89 73.7622 100.47 80.9723 94.7386C83.8794 92.4132 88.712 87.2387 90.8694 84.1413C96.1853 76.4599 99.2873 68.0824 100.271 58.823C100.574 55.7847 100.509 49.1403 100.147 46.1084C98.9828 36.8701 95.7179 28.5546 90.2531 20.9784C88.0357 17.9237 83.1031 12.8445 80.1512 10.5762C72.8307 4.98704 64.8492 1.72189 56.0301 0.679914C53.2338 0.358536 46.4961 0.444779 43.7262 0.820462ZM56.4849 7.25898C63.6637 8.33747 70.4697 11.2449 76.4914 15.8418C78.8923 17.6847 83.5093 22.4389 85.3109 24.9234C88.8949 29.9133 91.3281 35.0579 92.8301 40.8679C93.9465 45.1845 94.2641 47.704 94.3111 52.5233C94.3581 57.3425 94.0898 59.8678 93.0578 64.2053C91.125 72.3049 87.5377 78.9849 81.7774 85.1734C75.9975 91.3416 69.7071 95.2382 62.0328 97.4256C57.9229 98.5937 55.5236 98.9247 50.934 98.9695C46.3444 99.0143 43.9392 98.7301 39.8073 97.6424C32.0917 95.6052 25.7265 91.832 19.8273 85.7778C13.9474 79.7029 10.2304 73.0941 8.13997 65.0338C7.02358 60.7172 6.70602 58.1977 6.659 53.3784C6.61198 48.5592 6.88033 46.0339 7.91228 41.6964C9.84508 33.5968 13.4324 26.9168 19.1926 20.7283C26.751 12.6559 35.4005 8.32608 46.6183 6.96557C48.2182 6.78588 54.4898 6.97081 56.4849 7.25898Z" fill="#FF7443"/>
<path d="M28.4976 35.5273C26.1779 36.0012 22.9142 37.8173 21.7568 39.3053C20.6763 40.6695 20.6547 42.454 21.702 43.6948C22.986 45.1795 24.5483 45.1438 26.5056 43.5659C28.2111 42.1957 29.3205 41.7952 31.1185 41.9007C32.6624 41.9882 33.7021 42.4498 35.2182 43.686C36.2419 44.5169 37.1627 44.7951 38.1176 44.5807C38.9363 44.4086 39.789 43.7235 40.1525 42.9406C40.5738 42.0751 40.5388 40.4962 40.0822 39.7418C39.1896 38.3354 36.4371 36.4959 34.106 35.8008C32.7935 35.4034 29.8623 35.2679 28.4976 35.5273Z" fill="#FF7443"/>
<path d="M67.7342 35.165C65.6871 35.5542 63.5687 36.6413 61.8649 38.1756C60.6449 39.254 60.2806 39.9549 60.2922 41.1443C60.3036 42.3132 60.7227 43.2321 61.5096 43.7987C62.7687 44.7298 64.1542 44.5932 65.5683 43.3899C67.0599 42.1243 68.0904 41.6425 69.6323 41.5249C71.4279 41.3843 72.5449 41.7631 74.2768 43.0998C76.2646 44.6392 77.8272 44.6444 79.082 43.135C80.1049 41.8739 80.0485 40.0902 78.9416 38.7474C78.131 37.7503 75.7728 36.2761 74.0284 35.6574C72.2057 35.0188 69.5081 34.7991 67.7342 35.165Z" fill="#FF7443"/>
<path d="M22.5825 55.8688C22.155 56.0985 21.7304 56.6154 21.443 57.1925C21.003 58.1402 21.0034 58.1812 21.2445 60.8656C21.6179 65.1074 22.3895 68.1147 23.9871 71.7088C27.2023 78.9377 33.7269 85.0269 40.9984 87.6017C44.6048 88.8791 46.5608 89.1676 50.838 89.1259C55.1151 89.0842 57.0652 88.7575 60.6459 87.41C67.8659 84.6938 74.2704 78.4785 77.3439 71.1882C78.8712 67.5637 79.5839 64.5419 79.8745 60.2936C80.0631 57.605 80.0627 57.564 79.6043 56.625C79.3058 56.0537 78.8711 55.5452 78.4392 55.3238C77.7911 54.961 76.7363 54.9507 50.5071 55.2066C24.2778 55.4625 23.2234 55.4933 22.5825 55.8688ZM73.6183 61.6877C73.6247 62.344 72.9113 65.3043 72.398 66.7449C70.384 72.5277 66.0965 77.5123 60.8105 80.2506C54.3973 83.5742 47.171 83.6447 40.6942 80.4469C35.3558 77.8122 30.9718 72.9122 28.8454 67.1698C28.3041 65.7395 27.5331 62.7936 27.5267 62.1374C27.5235 61.8093 28.7537 61.7768 50.5691 61.5639C72.3845 61.3511 73.6151 61.3596 73.6183 61.6877Z" fill="#FF7443"/>
</svg>
