<svg width="74" height="104" viewBox="0 0 74 104" fill="none" xmlns="http://www.w3.org/2000/svg">
<mask id="path-1-outside-1_8_43" maskUnits="userSpaceOnUse" x="0" y="0" width="74" height="104" fill="black">
<rect fill="white" width="74" height="104"/>
<path d="M37.1435 2.93787C35.5612 3.46531 34.1351 3.93415 33.9788 3.99276C33.7054 4.09043 33.764 4.42253 34.4282 6.39557C34.8579 7.64581 35.1314 8.77884 35.0728 8.89605C34.9947 9.01326 34.4281 9.83373 33.803 10.6933L32.6895 12.2756L28.0402 14.8933C23.5471 17.4133 23.3127 17.5696 21.1443 19.6403L18.8978 21.7892L17.8624 24.231C17.2959 25.579 16.6122 26.966 16.3387 27.3176L15.8308 27.9818L15.0689 26.9073C14.268 25.7939 14.2875 25.7938 11.9238 25.2273C11.4159 25.0906 10.9666 24.8562 10.8884 24.6804C10.8298 24.485 11.2205 23.6255 11.9433 22.4534L13.0959 20.5389L8.30981 20.578L3.5042 20.6366L2.76187 23.7622C2.35163 25.4813 2.01954 27.0636 2 27.2785C2 27.4934 2.70326 29.3102 3.58234 31.3223L5.18421 34.9753L8.64191 38.3939L12.1191 41.8126L16.2801 49.3336L20.4411 56.8545L21.7304 56.1318C22.4532 55.7411 23.0588 55.3113 23.0783 55.2136C23.0978 55.0964 21.2029 51.5606 18.8587 47.341L14.6001 39.6637L11.2791 36.4795L7.95818 33.2953L6.61027 30.2478L5.28188 27.1808L5.51631 26.165C6.08282 23.6255 6.06329 23.6645 6.68841 23.6645C7.09864 23.6645 7.25492 23.7622 7.23539 23.9966C7.23539 24.192 7.58702 25.1101 8.01679 26.0283L8.81773 27.7083L10.361 28.1381C11.201 28.3529 11.9824 28.5483 12.0996 28.5483C12.2168 28.5483 12.6857 29.1148 13.1545 29.8181L14.014 31.0683L15.7136 31.0878H17.3936L18.4876 29.7985C19.2885 28.8218 19.7964 27.9232 20.4801 26.2236C21.3592 24.0552 21.4764 23.8794 23.176 22.1408C24.8951 20.3826 25.1099 20.2459 29.896 17.5501L34.8384 14.7761L36.7137 12.1584C37.7296 10.7323 38.6086 9.40396 38.6673 9.22815C38.7063 9.05233 38.5305 8.29046 38.257 7.52859L37.7882 6.14161L38.5891 5.88766L39.3705 5.65324L41.7929 8.07558C43.9222 10.2049 44.3715 10.7519 45.5826 12.8617L46.9501 15.2449L49.5873 16.8273L52.205 18.4096L55.7995 17.5891L59.3744 16.7687L61.4646 17.765C62.5977 18.3119 63.5353 18.8198 63.5353 18.8784C63.5353 19.1324 64.1214 24.3678 64.2191 24.8757C64.2777 25.2859 64.1995 25.5008 63.8674 25.7157C63.4572 25.9892 63.2032 25.9501 61.0153 25.325L58.632 24.6217L54.0999 27.005C51.5994 28.3139 49.4897 29.4469 49.392 29.525C49.3138 29.6227 48.7669 31.3223 48.2003 33.3148L47.1455 36.9679L45.3873 39.1949C44.4105 40.4256 43.6096 41.5196 43.6096 41.6172C43.6096 41.7149 44.7426 44.1177 46.1296 46.9503C48.4543 51.7168 48.8255 52.3224 51.072 55.3308L53.4943 58.5932L55.9167 56.9522C58.0265 55.5262 58.4562 55.3113 59.179 55.3113H60.019V56.5225V57.7532L62.3632 59.609C64.5316 61.3085 64.9028 61.7188 66.954 64.4927L69.2005 67.5207V69.1421C69.2005 70.0602 68.9465 72.3068 68.5949 74.3384L68.0089 77.8938L68.5949 81.1366C69.0052 83.2854 69.2005 84.985 69.2005 86.2157V88.0715L67.9112 89.7711C66.7977 91.2557 66.4656 91.9199 65.2349 95.1237C63.8284 98.7767 63.8088 98.7767 63.1837 98.8353C62.2851 98.933 61.406 98.3665 56.6981 94.772C52.8692 91.8613 52.459 91.5878 47.3213 88.9311L41.9491 86.1376L37.5928 81.8985L33.256 77.6789L33.4905 75.9989L33.7054 74.2993L32.2012 71.5058C31.3611 69.9626 29.349 66.3095 27.7276 63.3792L24.7974 58.0657L23.7034 58.6713C23.0978 59.0034 22.4922 59.3941 22.336 59.5308C22.1211 59.7262 22.7657 61.035 26.2234 67.3253L30.3844 74.8658L30.1304 76.7803C29.9937 77.8352 29.9156 78.7729 29.9546 78.8705C29.9937 78.9682 32.2988 81.2538 35.0728 83.9301L40.1324 88.8139L45.524 91.6269C50.6032 94.2641 51.1697 94.6158 54.6469 97.2725C56.6981 98.8353 59.0228 100.535 59.8432 101.062L61.3279 102H63.6721H66.0163L67.7354 97.5655C69.3372 93.4241 69.5521 93.0139 70.9782 91.0604L72.5215 88.9701V86.9385C72.541 85.4929 72.3456 83.8715 71.9159 81.3515L71.2907 77.8156L71.8963 74.0258C72.3066 71.6621 72.5215 69.5719 72.5215 68.4193V66.6025L69.8647 63.0081C67.54 59.8434 66.9735 59.2183 65.1763 57.7532L63.1446 56.0731V54.1196V52.1857H60.1753H57.206L55.7995 53.1624C55.0181 53.6899 54.3343 54.1392 54.2953 54.1392C54.2367 54.1392 53.5529 53.2796 52.7715 52.2247C51.7948 50.8964 50.7594 49.0991 49.3138 46.1689L47.2822 42.0275L48.1222 40.9335C50.0366 38.5112 50.0757 38.433 51.0329 35.1121C51.5408 33.3148 52.0097 31.8106 52.0487 31.7716C52.0878 31.7325 53.6506 30.8925 55.526 29.8962L58.9446 28.099L60.1167 28.4115C60.7614 28.5874 61.8749 28.8999 62.5781 29.1148L63.887 29.486L65.7623 28.3725C67.1298 27.5715 67.6377 27.1808 67.6377 26.8878C67.6377 25.7938 66.4851 16.5342 66.3484 16.4756C66.2507 16.4366 64.727 15.7333 62.9493 14.8933L59.7455 13.3891L56.5027 14.1314C54.725 14.5221 53.1232 14.8738 52.9083 14.8738C52.7129 14.8738 51.8143 14.4245 50.9352 13.897C49.3334 12.9398 49.2943 12.8812 48.2003 10.9082C47.1845 9.13047 46.7157 8.54442 43.6291 5.43835C41.7538 3.54345 40.1519 1.98065 40.0933 2.00018C40.0347 2.00018 38.7063 2.42996 37.1435 2.93787Z"/>
</mask><path d="M37.1435 2.93787C35.5612 3.46531 34.1351 3.93415 33.9788 3.99276C33.7054 4.09043 33.764 4.42253 34.4282 6.39557C34.8579 7.64581 35.1314 8.77884 35.0728 8.89605C34.9947 9.01326 34.4281 9.83373 33.803 10.6933L32.6895 12.2756L28.0402 14.8933C23.5471 17.4133 23.3127 17.5696 21.1443 19.6403L18.8978 21.7892L17.8624 24.231C17.2959 25.579 16.6122 26.966 16.3387 27.3176L15.8308 27.9818L15.0689 26.9073C14.268 25.7939 14.2875 25.7938 11.9238 25.2273C11.4159 25.0906 10.9666 24.8562 10.8884 24.6804C10.8298 24.485 11.2205 23.6255 11.9433 22.4534L13.0959 20.5389L8.30981 20.578L3.5042 20.6366L2.76187 23.7622C2.35163 25.4813 2.01954 27.0636 2 27.2785C2 27.4934 2.70326 29.3102 3.58234 31.3223L5.18421 34.9753L8.64191 38.3939L12.1191 41.8126L16.2801 49.3336L20.4411 56.8545L21.7304 56.1318C22.4532 55.7411 23.0588 55.3113 23.0783 55.2136C23.0978 55.0964 21.2029 51.5606 18.8587 47.341L14.6001 39.6637L11.2791 36.4795L7.95818 33.2953L6.61027 30.2478L5.28188 27.1808L5.51631 26.165C6.08282 23.6255 6.06329 23.6645 6.68841 23.6645C7.09864 23.6645 7.25492 23.7622 7.23539 23.9966C7.23539 24.192 7.58702 25.1101 8.01679 26.0283L8.81773 27.7083L10.361 28.1381C11.201 28.3529 11.9824 28.5483 12.0996 28.5483C12.2168 28.5483 12.6857 29.1148 13.1545 29.8181L14.014 31.0683L15.7136 31.0878H17.3936L18.4876 29.7985C19.2885 28.8218 19.7964 27.9232 20.4801 26.2236C21.3592 24.0552 21.4764 23.8794 23.176 22.1408C24.8951 20.3826 25.1099 20.2459 29.896 17.5501L34.8384 14.7761L36.7137 12.1584C37.7296 10.7323 38.6086 9.40396 38.6673 9.22815C38.7063 9.05233 38.5305 8.29046 38.257 7.52859L37.7882 6.14161L38.5891 5.88766L39.3705 5.65324L41.7929 8.07558C43.9222 10.2049 44.3715 10.7519 45.5826 12.8617L46.9501 15.2449L49.5873 16.8273L52.205 18.4096L55.7995 17.5891L59.3744 16.7687L61.4646 17.765C62.5977 18.3119 63.5353 18.8198 63.5353 18.8784C63.5353 19.1324 64.1214 24.3678 64.2191 24.8757C64.2777 25.2859 64.1995 25.5008 63.8674 25.7157C63.4572 25.9892 63.2032 25.9501 61.0153 25.325L58.632 24.6217L54.0999 27.005C51.5994 28.3139 49.4897 29.4469 49.392 29.525C49.3138 29.6227 48.7669 31.3223 48.2003 33.3148L47.1455 36.9679L45.3873 39.1949C44.4105 40.4256 43.6096 41.5196 43.6096 41.6172C43.6096 41.7149 44.7426 44.1177 46.1296 46.9503C48.4543 51.7168 48.8255 52.3224 51.072 55.3308L53.4943 58.5932L55.9167 56.9522C58.0265 55.5262 58.4562 55.3113 59.179 55.3113H60.019V56.5225V57.7532L62.3632 59.609C64.5316 61.3085 64.9028 61.7188 66.954 64.4927L69.2005 67.5207V69.1421C69.2005 70.0602 68.9465 72.3068 68.5949 74.3384L68.0089 77.8938L68.5949 81.1366C69.0052 83.2854 69.2005 84.985 69.2005 86.2157V88.0715L67.9112 89.7711C66.7977 91.2557 66.4656 91.9199 65.2349 95.1237C63.8284 98.7767 63.8088 98.7767 63.1837 98.8353C62.2851 98.933 61.406 98.3665 56.6981 94.772C52.8692 91.8613 52.459 91.5878 47.3213 88.9311L41.9491 86.1376L37.5928 81.8985L33.256 77.6789L33.4905 75.9989L33.7054 74.2993L32.2012 71.5058C31.3611 69.9626 29.349 66.3095 27.7276 63.3792L24.7974 58.0657L23.7034 58.6713C23.0978 59.0034 22.4922 59.3941 22.336 59.5308C22.1211 59.7262 22.7657 61.035 26.2234 67.3253L30.3844 74.8658L30.1304 76.7803C29.9937 77.8352 29.9156 78.7729 29.9546 78.8705C29.9937 78.9682 32.2988 81.2538 35.0728 83.9301L40.1324 88.8139L45.524 91.6269C50.6032 94.2641 51.1697 94.6158 54.6469 97.2725C56.6981 98.8353 59.0228 100.535 59.8432 101.062L61.3279 102H63.6721H66.0163L67.7354 97.5655C69.3372 93.4241 69.5521 93.0139 70.9782 91.0604L72.5215 88.9701V86.9385C72.541 85.4929 72.3456 83.8715 71.9159 81.3515L71.2907 77.8156L71.8963 74.0258C72.3066 71.6621 72.5215 69.5719 72.5215 68.4193V66.6025L69.8647 63.0081C67.54 59.8434 66.9735 59.2183 65.1763 57.7532L63.1446 56.0731V54.1196V52.1857H60.1753H57.206L55.7995 53.1624C55.0181 53.6899 54.3343 54.1392 54.2953 54.1392C54.2367 54.1392 53.5529 53.2796 52.7715 52.2247C51.7948 50.8964 50.7594 49.0991 49.3138 46.1689L47.2822 42.0275L48.1222 40.9335C50.0366 38.5112 50.0757 38.433 51.0329 35.1121C51.5408 33.3148 52.0097 31.8106 52.0487 31.7716C52.0878 31.7325 53.6506 30.8925 55.526 29.8962L58.9446 28.099L60.1167 28.4115C60.7614 28.5874 61.8749 28.8999 62.5781 29.1148L63.887 29.486L65.7623 28.3725C67.1298 27.5715 67.6377 27.1808 67.6377 26.8878C67.6377 25.7938 66.4851 16.5342 66.3484 16.4756C66.2507 16.4366 64.727 15.7333 62.9493 14.8933L59.7455 13.3891L56.5027 14.1314C54.725 14.5221 53.1232 14.8738 52.9083 14.8738C52.7129 14.8738 51.8143 14.4245 50.9352 13.897C49.3334 12.9398 49.2943 12.8812 48.2003 10.9082C47.1845 9.13047 46.7157 8.54442 43.6291 5.43835C41.7538 3.54345 40.1519 1.98065 40.0933 2.00018C40.0347 2.00018 38.7063 2.42996 37.1435 2.93787Z" fill="#FF7443"/>
<path d="M37.1435 2.93787C35.5612 3.46531 34.1351 3.93415 33.9788 3.99276C33.7054 4.09043 33.764 4.42253 34.4282 6.39557C34.8579 7.64581 35.1314 8.77884 35.0728 8.89605C34.9947 9.01326 34.4281 9.83373 33.803 10.6933L32.6895 12.2756L28.0402 14.8933C23.5471 17.4133 23.3127 17.5696 21.1443 19.6403L18.8978 21.7892L17.8624 24.231C17.2959 25.579 16.6122 26.966 16.3387 27.3176L15.8308 27.9818L15.0689 26.9073C14.268 25.7939 14.2875 25.7938 11.9238 25.2273C11.4159 25.0906 10.9666 24.8562 10.8884 24.6804C10.8298 24.485 11.2205 23.6255 11.9433 22.4534L13.0959 20.5389L8.30981 20.578L3.5042 20.6366L2.76187 23.7622C2.35163 25.4813 2.01954 27.0636 2 27.2785C2 27.4934 2.70326 29.3102 3.58234 31.3223L5.18421 34.9753L8.64191 38.3939L12.1191 41.8126L16.2801 49.3336L20.4411 56.8545L21.7304 56.1318C22.4532 55.7411 23.0588 55.3113 23.0783 55.2136C23.0978 55.0964 21.2029 51.5606 18.8587 47.341L14.6001 39.6637L11.2791 36.4795L7.95818 33.2953L6.61027 30.2478L5.28188 27.1808L5.51631 26.165C6.08282 23.6255 6.06329 23.6645 6.68841 23.6645C7.09864 23.6645 7.25492 23.7622 7.23539 23.9966C7.23539 24.192 7.58702 25.1101 8.01679 26.0283L8.81773 27.7083L10.361 28.1381C11.201 28.3529 11.9824 28.5483 12.0996 28.5483C12.2168 28.5483 12.6857 29.1148 13.1545 29.8181L14.014 31.0683L15.7136 31.0878H17.3936L18.4876 29.7985C19.2885 28.8218 19.7964 27.9232 20.4801 26.2236C21.3592 24.0552 21.4764 23.8794 23.176 22.1408C24.8951 20.3826 25.1099 20.2459 29.896 17.5501L34.8384 14.7761L36.7137 12.1584C37.7296 10.7323 38.6086 9.40396 38.6673 9.22815C38.7063 9.05233 38.5305 8.29046 38.257 7.52859L37.7882 6.14161L38.5891 5.88766L39.3705 5.65324L41.7929 8.07558C43.9222 10.2049 44.3715 10.7519 45.5826 12.8617L46.9501 15.2449L49.5873 16.8273L52.205 18.4096L55.7995 17.5891L59.3744 16.7687L61.4646 17.765C62.5977 18.3119 63.5353 18.8198 63.5353 18.8784C63.5353 19.1324 64.1214 24.3678 64.2191 24.8757C64.2777 25.2859 64.1995 25.5008 63.8674 25.7157C63.4572 25.9892 63.2032 25.9501 61.0153 25.325L58.632 24.6217L54.0999 27.005C51.5994 28.3139 49.4897 29.4469 49.392 29.525C49.3138 29.6227 48.7669 31.3223 48.2003 33.3148L47.1455 36.9679L45.3873 39.1949C44.4105 40.4256 43.6096 41.5196 43.6096 41.6172C43.6096 41.7149 44.7426 44.1177 46.1296 46.9503C48.4543 51.7168 48.8255 52.3224 51.072 55.3308L53.4943 58.5932L55.9167 56.9522C58.0265 55.5262 58.4562 55.3113 59.179 55.3113H60.019V56.5225V57.7532L62.3632 59.609C64.5316 61.3085 64.9028 61.7188 66.954 64.4927L69.2005 67.5207V69.1421C69.2005 70.0602 68.9465 72.3068 68.5949 74.3384L68.0089 77.8938L68.5949 81.1366C69.0052 83.2854 69.2005 84.985 69.2005 86.2157V88.0715L67.9112 89.7711C66.7977 91.2557 66.4656 91.9199 65.2349 95.1237C63.8284 98.7767 63.8088 98.7767 63.1837 98.8353C62.2851 98.933 61.406 98.3665 56.6981 94.772C52.8692 91.8613 52.459 91.5878 47.3213 88.9311L41.9491 86.1376L37.5928 81.8985L33.256 77.6789L33.4905 75.9989L33.7054 74.2993L32.2012 71.5058C31.3611 69.9626 29.349 66.3095 27.7276 63.3792L24.7974 58.0657L23.7034 58.6713C23.0978 59.0034 22.4922 59.3941 22.336 59.5308C22.1211 59.7262 22.7657 61.035 26.2234 67.3253L30.3844 74.8658L30.1304 76.7803C29.9937 77.8352 29.9156 78.7729 29.9546 78.8705C29.9937 78.9682 32.2988 81.2538 35.0728 83.9301L40.1324 88.8139L45.524 91.6269C50.6032 94.2641 51.1697 94.6158 54.6469 97.2725C56.6981 98.8353 59.0228 100.535 59.8432 101.062L61.3279 102H63.6721H66.0163L67.7354 97.5655C69.3372 93.4241 69.5521 93.0139 70.9782 91.0604L72.5215 88.9701V86.9385C72.541 85.4929 72.3456 83.8715 71.9159 81.3515L71.2907 77.8156L71.8963 74.0258C72.3066 71.6621 72.5215 69.5719 72.5215 68.4193V66.6025L69.8647 63.0081C67.54 59.8434 66.9735 59.2183 65.1763 57.7532L63.1446 56.0731V54.1196V52.1857H60.1753H57.206L55.7995 53.1624C55.0181 53.6899 54.3343 54.1392 54.2953 54.1392C54.2367 54.1392 53.5529 53.2796 52.7715 52.2247C51.7948 50.8964 50.7594 49.0991 49.3138 46.1689L47.2822 42.0275L48.1222 40.9335C50.0366 38.5112 50.0757 38.433 51.0329 35.1121C51.5408 33.3148 52.0097 31.8106 52.0487 31.7716C52.0878 31.7325 53.6506 30.8925 55.526 29.8962L58.9446 28.099L60.1167 28.4115C60.7614 28.5874 61.8749 28.8999 62.5781 29.1148L63.887 29.486L65.7623 28.3725C67.1298 27.5715 67.6377 27.1808 67.6377 26.8878C67.6377 25.7938 66.4851 16.5342 66.3484 16.4756C66.2507 16.4366 64.727 15.7333 62.9493 14.8933L59.7455 13.3891L56.5027 14.1314C54.725 14.5221 53.1232 14.8738 52.9083 14.8738C52.7129 14.8738 51.8143 14.4245 50.9352 13.897C49.3334 12.9398 49.2943 12.8812 48.2003 10.9082C47.1845 9.13047 46.7157 8.54442 43.6291 5.43835C41.7538 3.54345 40.1519 1.98065 40.0933 2.00018C40.0347 2.00018 38.7063 2.42996 37.1435 2.93787Z" stroke="#FF7443" stroke-width="2.6" mask="url(#path-1-outside-1_8_43)"/>
</svg>
