<svg width="60" height="60" viewBox="0 0 60 60" fill="none" xmlns="http://www.w3.org/2000/svg">
<path d="M39.5512 0.10731C39.1884 0.264423 34.9322 4.60316 34.8355 4.9053C34.7992 5.05032 34.8355 5.31621 34.9443 5.50958C35.2345 6.05343 39.9986 10.7185 40.3613 10.8031C40.7845 10.9118 41.111 10.7306 41.9453 9.92083L42.6345 9.24403L42.961 9.55826L43.2874 9.88457L42.3201 10.8998C41.7276 11.5161 41.2077 12.1808 40.9901 12.6159C40.6636 13.2806 40.6394 13.4498 40.6394 14.6705C40.6394 15.8911 40.6636 16.0603 40.9901 16.725C41.4495 17.6556 42.3685 18.5741 43.2995 19.0334C43.9646 19.3597 44.1338 19.3839 45.3551 19.3839C46.5763 19.3839 46.7456 19.3597 47.4106 19.0334C47.8459 18.8158 48.511 18.2962 49.1276 17.704L50.1433 16.7371L50.4698 17.0634L50.7841 17.3897L50.107 18.0786C49.2969 18.9125 49.1155 19.2388 49.2243 19.6618C49.309 20.0244 53.9763 24.7861 54.5204 25.0762C54.7139 25.185 54.9799 25.2212 55.125 25.185C55.4998 25.0641 59.889 20.677 59.9858 20.3265C60.022 20.1694 59.9858 19.9277 59.9132 19.7706C59.6472 19.2509 54.8106 14.5013 54.472 14.4288C54.0247 14.3321 53.7103 14.5013 52.876 15.311L52.1868 15.9878L51.8603 15.6615L51.5217 15.3352L53.6982 13.1598C55.6933 11.1656 55.8626 10.9602 55.8626 10.5614C55.8626 10.2351 55.7537 10.0296 55.391 9.65494L54.9194 9.17152L55.7296 8.3497C56.9387 7.12905 56.9387 7.10488 54.9315 5.09867C52.9243 3.09246 52.9002 3.09246 51.6789 4.30102L50.8567 5.11075L50.373 4.63941C49.9982 4.27685 49.7926 4.16808 49.4662 4.16808C49.0672 4.16808 48.8616 4.33727 46.8665 6.3314L44.69 8.50681L44.3636 8.16841L44.0371 7.8421L44.7142 7.15322C45.5244 6.31931 45.6936 6.00509 45.5969 5.55792C45.5244 5.21952 40.7724 0.385279 40.2525 0.119396C39.9502 -0.0377172 39.8776 -0.0377172 39.5512 0.10731ZM41.6067 4.09556L43.2995 5.78755L41.9332 7.14114L40.5789 8.50681L38.862 6.79065L37.1329 5.06241L38.4629 3.73299C39.1884 3.00786 39.8172 2.40358 39.8535 2.40358C39.8897 2.40358 40.6757 3.16497 41.6067 4.09556ZM53.9158 7.5037L53.5894 7.8421L52.8881 7.15322L52.1868 6.46434L52.5132 6.12594L52.8397 5.78755L53.541 6.47643L54.2423 7.16531L53.9158 7.5037ZM50.2884 13.8003C46.7577 17.3414 46.4796 17.5468 45.2946 17.5468C44.2185 17.5468 43.2753 16.9426 42.7433 15.9274C42.4048 15.2627 42.3806 14.1387 42.695 13.5103C42.8038 13.2927 44.3757 11.6128 46.1773 9.81206L49.4662 6.51268L51.4855 8.53098L53.5168 10.5614L50.2884 13.8003ZM55.9956 18.4774L57.6884 20.1694L56.322 21.523L54.9678 22.8887L53.2508 21.1725L51.5217 19.4443L52.8518 18.1149C53.5773 17.3897 54.206 16.7855 54.2423 16.7855C54.2786 16.7855 55.0645 17.5468 55.9956 18.4774Z" fill="#FF7443"/>
<path d="M39.9986 18.7554C39.6117 19.1663 39.6359 19.831 40.047 20.1573C40.6999 20.677 41.5463 20.2782 41.5463 19.4564C41.5463 18.5862 40.5669 18.1511 39.9986 18.7554Z" fill="#FF7443"/>
<path d="M37.1449 18.8521C36.492 19.3597 36.8547 20.9671 37.8583 22.091C38.6564 22.9612 40.2162 23.5051 40.9175 23.1425C41.8364 22.6711 41.4858 21.5109 40.3733 21.3417C39.5269 21.1967 38.8861 20.5078 38.7047 19.5289C38.608 19.0213 38.1606 18.5983 37.7374 18.5983C37.5923 18.5983 37.3263 18.7071 37.1449 18.8521Z" fill="#FF7443"/>
<path d="M34.4486 18.9004C34.0254 19.0817 33.9286 19.2751 33.9286 19.9761C33.9286 21.3417 34.6783 22.9733 35.8633 24.1577C36.9878 25.2937 38.3179 25.9463 39.9381 26.1518C40.5427 26.2243 40.591 26.2122 40.9538 25.8617C41.2682 25.5354 41.3165 25.4146 41.2561 25.0883C41.1473 24.5323 40.9538 24.3994 39.9623 24.206C38.7894 23.9885 37.9309 23.5292 37.1813 22.7437C36.492 22.0064 36.0205 21.0879 35.8633 20.1211C35.8028 19.7585 35.7061 19.3476 35.6335 19.2267C35.4401 18.8642 34.896 18.7192 34.4486 18.9004Z" fill="#FF7443"/>
<path d="M17.4238 21.4505C8.85095 22.369 1.983 28.6535 0.290195 37.1255C-0.0967317 39.0713 -0.0967317 42.3586 0.290195 44.3044C1.86209 52.16 7.77481 58.082 15.6705 59.7015C17.4843 60.0761 20.9061 60.1003 22.6231 59.7619C24.7754 59.3389 26.8431 58.6258 28.3666 57.7919C33.7231 54.8189 37.1934 50.0571 38.3662 44.0385C38.6927 42.3586 38.6564 38.9021 38.3058 37.1255C36.746 29.3061 30.7607 23.2996 22.9859 21.7405C21.8009 21.4988 18.5362 21.3296 17.4238 21.4505ZM18.3307 26.7682V30.1038L17.2787 30.0313C15.7068 29.9104 13.8205 29.6929 13.5908 29.6083C13.4094 29.5479 13.4578 29.3787 13.9777 28.2789C15.0781 25.9947 16.2509 24.5444 17.6052 23.8072C17.9679 23.6017 18.2823 23.4325 18.3065 23.4325C18.3186 23.4325 18.3307 24.9312 18.3307 26.7682ZM22.2362 24.7378C23.1068 25.5838 23.8323 26.6594 24.6182 28.2789C25.1382 29.3787 25.1865 29.5479 25.0052 29.6083C24.7754 29.6929 22.8891 29.9104 21.3293 30.0313L20.2653 30.1038V26.7682V23.4325L20.8941 23.7468C21.2447 23.916 21.8372 24.3752 22.2362 24.7378ZM26.5045 24.8828C27.9071 25.5113 29.2372 26.3693 30.6156 27.5175C31.0025 27.8438 31.0509 27.9284 30.9058 28.0251C30.6761 28.1701 28.3303 28.9436 27.6411 29.1007L27.1333 29.2095L26.9398 28.7139C26.3836 27.2758 24.8601 24.5686 24.4852 24.3269C24.4248 24.2906 24.3764 24.2181 24.3764 24.1577C24.3764 24.0247 25.3316 24.3631 26.5045 24.8828ZM13.6755 24.8949C13.1434 25.62 12.0552 27.6746 11.6562 28.7139L11.4627 29.2215L10.3866 28.9315C9.03233 28.5689 7.54508 28.0251 7.59344 27.9042C7.67808 27.6867 9.33461 26.4298 10.314 25.8376C11.4023 25.1729 13.6392 24.1698 14.0019 24.1577C14.1712 24.1577 14.0987 24.3269 13.6755 24.8949ZM7.30325 29.9588C7.96828 30.2246 9.04442 30.5872 9.68527 30.7685C10.8219 31.0827 10.846 31.1069 10.7735 31.397C10.2657 33.3548 9.85455 36.0862 9.67317 38.5637L9.60063 39.7481H5.73136H1.87418L1.94673 39.1076C2.28529 36.2191 3.19215 33.5965 4.60685 31.3849C5.13887 30.563 5.96109 29.4753 6.05783 29.4753C6.06992 29.4753 6.63822 29.6929 7.30325 29.9588ZM32.9976 29.9829C34.9443 32.3759 36.2986 35.784 36.6371 39.1076L36.6976 39.7481H32.8525H28.9953L28.9228 38.5637C28.7414 36.0862 28.3303 33.3548 27.8225 31.409C27.7499 31.1069 27.7862 31.0948 29.1163 30.7081C29.8659 30.4905 30.9179 30.128 31.4499 29.8983C31.9819 29.6687 32.4535 29.4874 32.5019 29.4753C32.5502 29.4753 32.7679 29.705 32.9976 29.9829ZM14.5219 31.6991C15.2594 31.7958 16.4081 31.9045 17.0973 31.9529L18.3307 32.0375V35.8928V39.7481H14.933H11.5353L11.6199 38.5637C11.7771 36.2312 12.1761 33.6449 12.5993 32.1583C12.8049 31.4332 12.6719 31.4695 14.5219 31.6991ZM25.9362 31.9166C26.3231 33.0889 26.8189 36.2675 26.9761 38.5637L27.0607 39.7481H23.663H20.2653V35.8928V32.0375L21.5349 31.9529C22.2241 31.9045 23.3244 31.7958 23.9774 31.7112C25.8274 31.4816 25.7911 31.4695 25.9362 31.9166ZM9.67317 42.8541C9.85455 45.3437 10.2657 48.0751 10.7735 50.033C10.846 50.323 10.8219 50.3472 9.68527 50.6614C9.04442 50.8427 7.96828 51.2053 7.30325 51.4712C5.85227 52.0513 5.99737 52.1117 4.83659 50.3714C3.22842 47.9663 2.30947 45.38 1.94673 42.3103L1.87418 41.6818H5.73136H9.60063L9.67317 42.8541ZM18.3307 45.5371V49.3924L17.0369 49.477C16.3114 49.5254 15.1627 49.6341 14.4735 49.7308C12.696 49.9725 12.8049 49.9967 12.5993 49.2595C12.1761 47.785 11.7771 45.1987 11.6199 42.8541L11.5353 41.6818H14.933H18.3307V45.5371ZM26.9761 42.8541C26.7463 46.1172 26.045 49.9 25.6581 49.9C25.5855 49.9 24.8963 49.8275 24.1346 49.7308C23.3728 49.6341 22.1878 49.5133 21.5107 49.477L20.2653 49.3924V45.5371V41.6818H23.663H27.0607L26.9761 42.8541ZM36.6371 42.3103C36.3349 45.2471 35.3434 48.0026 33.6989 50.456C32.5986 52.0996 32.7316 52.0513 31.3169 51.4832C30.664 51.2174 29.5878 50.8548 28.9349 50.6735C27.7741 50.3472 27.7499 50.323 27.8225 50.033C28.3303 48.0751 28.7414 45.3437 28.9228 42.8541L28.9953 41.6818H32.8525H36.6976L36.6371 42.3103ZM18.3307 54.6738V57.9974L17.7019 57.6832C16.3477 56.9943 15.0902 55.4594 13.9777 53.1511C13.2764 51.6766 13.1918 51.7975 15.1264 51.6041C15.864 51.5316 16.6258 51.447 16.8192 51.4228C17.0248 51.4107 17.4359 51.3745 17.7624 51.3624L18.3307 51.3503V54.6738ZM23.5905 51.6162C25.3921 51.8095 25.3074 51.6887 24.6182 53.1511C23.5058 55.4594 22.2483 56.9943 20.8941 57.6832L20.2653 57.9974V54.6618V51.314L21.3293 51.3986C21.9097 51.4349 22.9254 51.5316 23.5905 51.6162ZM11.7408 52.8852C12.2124 54.1542 13.1313 55.8341 13.8931 56.813C14.1954 57.2118 14.2075 57.2722 14.014 57.2722C13.6392 57.2602 11.4143 56.2571 10.314 55.5923C9.32252 55.0001 7.67808 53.7432 7.59344 53.5257C7.53298 53.3565 11.233 52.1479 11.4506 52.2688C11.4869 52.293 11.6199 52.5709 11.7408 52.8852ZM29.4427 52.861C31.0993 53.4048 31.1718 53.4532 30.7849 53.7795C29.7934 54.5892 28.6689 55.3869 27.8104 55.8703C26.8672 56.4142 24.4973 57.4294 24.3885 57.3327C24.3643 57.3085 24.5094 57.0789 24.7029 56.8251C25.4404 55.8703 26.2627 54.3354 27.0123 52.5347C27.1333 52.2325 27.1695 52.2205 27.6411 52.3292C27.9192 52.3897 28.7293 52.6314 29.4427 52.861Z" fill="#FF7443"/>
</svg>
