<svg width="85" height="84" viewBox="0 0 85 84" fill="none" xmlns="http://www.w3.org/2000/svg">
<g clip-path="url(#clip0_4_58)">
<path d="M38.471 57.7314C35.907 58.1091 34.1965 57.734 32.3407 56.4346C31.2878 55.6973 30.513 54.8288 29.8883 53.724C29.4805 53.0194 28.9661 51.5572 28.8857 50.8956C28.7727 49.9474 28.2962 49.474 27.5145 49.5475C27.0831 49.5868 26.9507 49.6649 26.6663 50.071C26.3527 50.5189 26.3434 50.6209 26.5272 51.5567C26.8812 53.4032 27.6082 54.9832 28.799 56.5C29.4236 57.2944 29.7177 57.5623 30.9198 58.4195C32.0874 59.2371 32.4951 59.476 33.3113 59.7526C35.2658 60.4228 37.586 60.5264 39.5704 60.0223C40.1988 59.857 40.4062 59.7384 40.6322 59.4155C40.9969 58.8948 40.9476 58.255 40.4774 57.8171C40.1563 57.4991 40.0823 57.4939 38.471 57.7314Z" fill="#FF7443"/>
<path d="M38.416 62.3604C34.7506 62.9173 31.9705 62.232 29.1492 60.0614C26.7239 58.198 25.2135 55.8339 24.5129 52.8056C24.2251 51.5379 24.1309 51.3368 23.7628 51.079C23.1634 50.6593 22.2353 50.9104 21.9945 51.5677C21.7607 52.2149 22.4553 54.8937 23.3177 56.6388C25.7932 61.6759 30.6385 64.8282 36.1671 64.9903C37.4772 65.0217 40.0425 64.6706 40.6441 64.371C41.4603 63.9664 41.5021 62.8995 40.7134 62.3472C40.3663 62.1042 40.1591 62.1093 38.416 62.3604Z" fill="#FF7443"/>
<path d="M38.6373 66.3857C36.4273 66.8386 34.9527 66.9225 33.2436 66.7027C30.8351 66.3962 28.9008 65.6466 26.8607 64.2181C23.4904 61.8582 21.4499 58.5997 20.6556 54.3064C20.4925 53.4324 20.263 52.5895 20.1421 52.4428C19.6841 51.905 18.7125 52.0155 18.2535 52.671C18.0568 52.952 18.0961 53.8323 18.3733 55.2669C19.3382 60.2533 22.6683 64.9268 26.8692 67.1858C30.5936 69.1889 34.5357 69.7318 38.7154 68.8284C41.1201 68.3102 41.6279 67.9681 41.4759 66.9932C41.4088 66.6207 41.2971 66.4184 41.0271 66.2293C40.6971 65.9982 40.4942 66.0112 38.6373 66.3857Z" fill="#FF7443"/>
<path d="M58.2364 16.1175C57.5581 15.8631 56.4989 15.7674 55.9099 15.9065C54.8836 16.1489 54.2923 16.5857 53.5225 17.6852L52.8307 18.6504L52.0839 18.5844C51.1469 18.4955 49.9009 18.7574 49.1513 19.1936C48.6202 19.4992 48.4212 19.738 46.9679 21.7455L45.3592 23.975L44.5078 23.3789L43.667 22.7901L45.1845 20.6228L46.7021 18.4555L46.6304 17.9011L46.566 17.3361L44.6077 15.9649C43.5435 15.2197 40.1517 12.8604 37.0791 10.7248L31.4801 6.85159L30.9567 6.94207L30.4334 7.03255L26.7025 12.3609C23.882 16.3889 22.9664 17.7645 22.9322 18.0399C22.903 18.2401 22.9933 18.5869 23.1289 18.8236C23.3584 19.2207 24.0641 19.7305 30.7454 24.3459L38.1121 29.4095L38.5623 29.3781L39.0093 29.3288L40.6467 27.1035L42.2767 24.889L43.129 25.4385L43.9707 25.9806L42.1423 28.5919L40.3138 31.2033L38.7938 31.494C35.9162 32.0472 33.6634 33.3845 31.6781 35.7442C31.2103 36.299 31.0761 36.5359 31.0178 36.9363C30.9161 37.7159 31.1386 37.919 33.2395 38.996C35.5147 40.1637 36.8381 40.9013 38.6501 42.0284L40.0535 42.9008L39.3503 43.9051L38.647 44.9095L37.9159 44.7757C36.934 44.5924 35.6093 44.8307 34.7399 45.3248C33.7539 45.8949 32.7055 47.2563 32.4367 48.297C31.9362 50.3256 32.6878 52.3329 34.4226 53.5476C36.019 54.6655 37.8513 54.7668 39.5712 53.8283C40.342 53.4069 40.4702 53.2918 41.1216 52.3615C41.7583 51.4523 41.8373 51.2714 41.9761 50.4389C42.1824 49.1024 41.9496 47.9625 41.2434 46.9323C40.8903 46.4173 40.888 46.3526 41.1097 45.8776C41.2554 45.6015 41.5237 45.1276 41.7236 44.8422L42.0757 44.3167L43.8193 45.6321C45.7683 47.1071 47.0205 48.1729 48.9417 49.9594C50.3753 51.3098 50.6636 51.4644 51.3054 51.2048C52.0628 50.9159 53.2773 48.6151 53.7005 46.6742C54.0715 45.0118 54.1089 43.6672 53.8404 41.9667L53.5701 40.3594L55.369 37.7904L57.1604 35.2319L58.0118 35.8281L58.8633 36.4243L57.3457 38.5915L55.8282 40.7588L55.8967 41.2953L55.9652 41.8316L63.4119 47.0301C68.9823 50.8991 70.9627 52.2385 71.221 52.2775C71.9414 52.4038 71.9488 52.3932 75.9366 46.6302C79.55 41.4244 79.6652 41.2372 79.6184 40.8736C79.5902 40.6647 79.481 40.3677 79.387 40.2074C79.2644 40.0427 76.3131 37.9604 71.8029 34.8653L64.4182 29.8048L63.9318 29.8424L63.4456 29.8801L61.8549 32.1065L60.2536 34.3254L59.4119 33.7833L58.5808 33.2486L60.078 31.0198C61.5636 28.8302 61.5826 28.7805 61.7436 27.9163C61.9212 26.9378 61.6736 25.4566 61.215 24.8205L60.942 24.4402L61.6841 23.2897C62.5192 21.9838 62.6556 21.4491 62.4302 20.2987C62.1919 19.0762 61.7814 18.5524 60.1008 17.3284C59.2887 16.744 58.447 16.2019 58.2364 16.1175ZM59.9224 20.5279C60.1139 21.0244 59.9932 21.4913 59.4547 22.1698L59.0082 22.7395L56.9958 21.3777L54.9801 19.9978L55.5353 19.2049C56.2608 18.1689 56.4741 18.1134 57.661 18.6608C58.331 18.9724 59.7821 20.1618 59.9224 20.5279ZM59.2027 26.3578C59.2736 26.5964 59.3301 27.0141 59.3032 27.2789C59.2759 27.7482 59.0645 28.0729 55.8425 32.765C53.9719 35.5044 52.3993 37.7277 52.378 37.7128C52.3461 37.6904 52.1679 37.4239 51.9939 37.1287C51.2799 35.9513 50.1721 34.8605 48.6044 33.747C46.7951 32.4801 45.4796 31.8899 43.5995 31.4715C43.4061 31.4306 43.4778 31.2602 44.15 30.1869C45.3359 28.2442 49.9057 21.7858 50.3041 21.466C50.4979 21.3024 50.85 21.1394 51.0814 21.0807C51.9517 20.9024 52.0942 20.9707 55.7012 23.5436C58.9218 25.8302 59.0635 25.9451 59.2027 26.3578ZM68.5109 37.8226L67.4745 39.3028L64.9202 37.5142L62.3659 35.7257L63.4023 34.2456L64.4387 32.7655L66.993 34.554L69.5472 36.3426L68.5109 37.8226ZM75.6536 42.572C75.1502 43.2909 74.7158 43.9792 74.6811 44.0968C74.6413 44.2895 74.3604 44.1243 72.0616 42.5147L69.4966 40.7187L70.533 39.2386L71.5694 37.7585L74.0704 39.5097L76.5715 41.261L75.6536 42.572ZM35.558 14.8906L34.529 16.3601L32.0303 14.6735C30.6532 13.7407 29.4963 12.9465 29.4686 12.8955C29.4302 12.8371 29.8794 12.1276 30.4494 11.3135L31.4784 9.84401L34.0327 11.6325L36.587 13.4211L35.558 14.8906ZM42.6812 19.8941L41.6449 21.3742L39.0906 19.5857L36.5363 17.7972L37.5727 16.3171L38.6091 14.837L41.1633 16.6255L43.7176 18.414L42.6812 19.8941ZM72.0892 47.8436L71.0626 49.3778L68.4976 47.5819L65.9433 45.7933L66.9797 44.3132L68.0087 42.8437L68.8153 43.3454C69.2451 43.6149 70.3913 44.4017 71.3598 45.0799L73.1084 46.32L72.0892 47.8436ZM39.1649 24.9159L38.0915 26.4489L35.5373 24.6603L32.983 22.8718L34.0194 21.3917L35.0558 19.9116L36.9192 21.1691C37.927 21.859 39.0987 22.6322 39.5105 22.9048L40.2383 23.3829L39.1649 24.9159ZM64.9576 42.8973L63.9212 44.3774L61.3669 42.5889L58.8126 40.8004L59.849 39.3202L60.8854 37.8402L63.4397 39.6287L65.9939 41.4172L64.9576 42.8973ZM31.9973 19.9758L30.9609 21.4559L28.4598 19.7046L25.9588 17.9534L26.8323 16.7059C27.3061 16.0292 27.7405 15.3408 27.8048 15.181L27.9038 14.9038L30.4687 16.6997L33.0336 18.4957L31.9973 19.9758ZM49.2181 37.6272C49.5027 37.9683 50.0298 38.7785 50.3982 39.4304C50.9683 40.4283 51.1108 40.8589 51.3635 42.2648C51.7297 44.3016 51.5521 46.0049 50.8017 47.575L50.5801 48.05L49.6259 47.1928C47.4034 45.1797 45.9162 43.9965 43.0107 41.9621C39.9881 39.8457 38.3144 38.8155 35.6478 37.4367C34.9287 37.0593 34.3244 36.6991 34.3146 36.6451C34.2716 36.4574 35.6162 35.3979 36.5619 34.8627C39.0938 33.4213 42.0163 33.3249 45.0956 34.5673C46.0271 34.9359 48.5296 36.7985 49.2181 37.6272ZM39.0197 48.0695C39.7541 48.9461 39.7075 50.3945 38.9473 51.1856C38.0992 52.0571 36.8198 52.1854 35.83 51.4923C34.0952 50.2776 34.6809 47.5838 36.7445 47.2642C37.2965 47.178 38.1679 47.3154 38.5371 47.5582C38.6222 47.6178 38.8406 47.8496 39.0197 48.0695Z" fill="#FF7443"/>
</g>
<defs>
<clipPath id="clip0_4_58">
<rect width="60" height="60" fill="white" transform="translate(35.3577) rotate(35)"/>
</clipPath>
</defs>
</svg>
