<svg width="50" height="60" viewBox="0 0 50 60" fill="none" xmlns="http://www.w3.org/2000/svg">
<path d="M5.98352 0.207714C3.02288 0.763696 0.66441 2.63712 0.14588 4.82479C0.012066 5.38077 -0.0213875 12.7173 0.012066 30.5088L0.0622463 55.4071L0.413508 56.0839C1.35021 57.8486 3.03961 59.0693 5.46499 59.7341L6.41842 60H24.9015H43.3846L44.4718 59.7099C47.3655 58.9485 49.3895 57.1838 49.8244 55.0445C50.0585 53.8721 50.0585 6.02136 49.8244 4.94565C49.2891 2.57668 46.7299 0.606571 43.5017 0.123108C42.8828 0.0264152 37.2124 -0.00984448 24.8513 0.0022421C8.60962 0.0022421 6.98713 0.0264152 5.98352 0.207714ZM44.1707 2.32286C45.3081 2.73381 46.4957 3.62821 46.9306 4.43802C47.215 4.98191 47.2317 5.94884 47.2819 26.4235L47.3154 47.853L27.1429 47.8772L6.9704 47.9134L6.65259 48.2035C6.2177 48.5903 6.23442 49.1946 6.7195 49.5209L7.10421 49.7868L27.1763 49.811L47.2317 49.8473L47.2819 51.902C47.3321 54.2226 47.1648 55.2258 46.6296 56.0235C46.1445 56.7004 45.0405 57.4618 44.0035 57.8002L43.2173 58.0661H25.0688C7.55584 58.0661 6.88677 58.0541 6.08388 57.8365C4.99664 57.5223 3.62505 56.5916 3.13997 55.7939L2.73853 55.1654L2.68835 32.358L2.65489 9.53855L23.0783 9.51438L43.5017 9.47812L43.9031 9.13969C44.3882 8.72875 44.4216 8.34198 43.9533 7.91895L43.6187 7.6047L23.1786 7.58052L2.73853 7.54426L2.75526 6.21474C2.75526 5.13904 2.82216 4.77644 3.10652 4.31715C3.52469 3.66447 4.67883 2.70963 5.39808 2.44373C6.75295 1.93609 6.4686 1.93609 25.236 1.96027L43.2173 1.98444L44.1707 2.32286Z" fill="#FF7443"/>
<path d="M17.1235 3.88201C16.3039 4.19626 16.1367 4.81268 16.7221 5.35657L17.0566 5.67082H24.8848C33.382 5.67082 33.2649 5.68291 33.499 4.99398C33.6496 4.55886 33.3485 4.03914 32.83 3.86992C32.2613 3.68863 17.5919 3.68863 17.1235 3.88201Z" fill="#FF7443"/>
<path d="M23.8979 51.1043C21.4223 51.6845 20.2347 53.5337 21.2885 55.1654C22.6434 57.2926 26.5407 57.4981 28.3639 55.5522C30.0701 53.715 28.3639 51.201 25.2862 51.0439C24.7509 51.0197 24.1321 51.0439 23.8979 51.1043ZM25.9218 53.2799C26.2062 53.4975 26.4069 53.7634 26.4069 53.9567C26.4069 54.3435 25.5706 54.9841 25.0687 54.9841C23.7641 54.9841 23.0783 53.8842 23.9815 53.2315C24.5502 52.8085 25.2862 52.8327 25.9218 53.2799Z" fill="#FF7443"/>
</svg>
