<svg width="60" height="60" viewBox="0 0 60 60" fill="none" xmlns="http://www.w3.org/2000/svg">
<path d="M42.6106 0.243821C42.1106 0.593858 42.0828 1.25643 42.5411 1.66897C42.8189 1.90649 43.055 1.969 44.2495 2.03151C46.7633 2.18152 49.1661 2.9066 51.2355 4.13172C55.041 6.38196 57.4298 10.0948 57.7354 14.1703C57.8048 15.2454 57.8743 15.4579 58.1382 15.7079C58.5826 16.108 59.2215 16.083 59.6798 15.6704C60.027 15.3579 60.0409 15.3204 59.9576 14.1453C59.6937 10.3574 58.0271 7.05703 55.0132 4.36925C52.0688 1.73148 48.4161 0.256323 44.305 0.0312993C43.0967 -0.0312072 42.9578 -0.0187059 42.6106 0.243821Z" fill="#FF7443"/>
<path d="M17.2359 4.58177C13.3887 8.25715 10.861 13.1452 10.2082 18.2457C9.58324 22.9837 10.4721 27.4341 12.8749 31.7721C13.9721 33.7473 14.3332 34.0973 15.0693 33.9223C15.4859 33.8348 15.972 33.3097 15.972 32.9722C15.972 32.8472 15.6943 32.3096 15.3609 31.7721C10.361 23.8088 11.4443 13.7827 18.0831 6.732L18.597 6.18194L35.8607 21.721L53.1243 37.2602L52.5132 37.7227C50.3327 39.3854 46.9161 41.1231 44.3745 41.8606C41.6384 42.6482 38.7495 43.0358 35.8885 42.9857C34.2496 42.9482 34.1524 42.9607 33.819 43.2483C33.3607 43.6358 33.3468 44.2234 33.819 44.6234C34.1246 44.8734 34.319 44.9109 35.8051 44.9735C41.6106 45.186 47.9994 43.3608 52.6799 40.1605C54.1382 39.1604 55.6938 37.8602 55.7771 37.5602C55.8188 37.3977 55.8188 37.1351 55.7632 36.9726C55.7076 36.8101 51.7494 33.1597 46.9716 28.8468L38.2634 20.996L40.069 19.3708C41.4856 18.0832 41.93 17.7456 42.1523 17.8081C42.305 17.8456 42.7217 17.9082 43.0828 17.9582C44.8328 18.1582 46.6661 16.6455 46.6661 14.9954C46.6661 13.8327 45.555 12.4701 44.3189 12.1451C43.0689 11.795 42.0134 12.0575 41.0273 12.9326C40.0412 13.8202 39.8051 14.7328 40.2078 16.058C40.2773 16.258 39.8884 16.658 38.4718 17.9332L36.6662 19.5583L27.8747 11.645C17.6942 2.48156 18.722 3.16913 17.2359 4.58177ZM44.0967 14.3078C44.3189 14.4953 44.4439 14.7578 44.4439 14.9954C44.4439 15.2329 44.3189 15.4954 44.0967 15.6829C43.8883 15.8829 43.5967 15.9955 43.3328 15.9955C43.0689 15.9955 42.7773 15.8829 42.5689 15.6829C42.3467 15.4954 42.2217 15.2329 42.2217 14.9954C42.2217 14.7578 42.3467 14.4953 42.5689 14.3078C42.7773 14.1078 43.0689 13.9952 43.3328 13.9952C43.5967 13.9952 43.8883 14.1078 44.0967 14.3078Z" fill="#FF7443"/>
<path d="M42.5828 4.25673C42.305 4.45675 42.2217 4.61927 42.2217 4.99431C42.2217 5.71938 42.6245 5.9319 44.0828 6.04441C46.5272 6.20693 48.5827 7.06952 50.3605 8.66969C52.1382 10.2699 53.0965 12.12 53.2771 14.3203C53.4021 15.6454 53.5965 15.9329 54.4437 15.9329C54.9021 15.9329 55.0965 15.8579 55.3048 15.6204C55.5548 15.3454 55.5826 15.1954 55.4993 14.2453C55.1104 9.23224 50.9438 5.04431 45.4855 4.18172C43.7911 3.91919 43.0411 3.9317 42.5828 4.25673Z" fill="#FF7443"/>
<path d="M42.68 8.16963C42.0411 8.59468 42.2356 9.7948 42.9578 9.91982C43.1245 9.94482 43.6661 10.0198 44.1661 10.0948C46.6939 10.4324 48.6105 12.2576 48.8466 14.5578C48.9161 15.2204 49.0133 15.4829 49.2494 15.7079C49.6938 16.0955 50.3327 16.083 50.791 15.6704C51.1244 15.3704 51.1382 15.2954 51.0688 14.4578C50.7355 11.0449 47.7077 8.30715 43.9578 8.04462C43.1939 7.99462 42.9161 8.01962 42.68 8.16963Z" fill="#FF7443"/>
<path d="M18.5831 10.1449C18.222 10.3949 17.3609 11.7825 17.3609 12.0951C17.3609 12.5326 17.9581 12.9951 18.5137 12.9951C19.0414 12.9951 19.347 12.7451 19.9164 11.8575C20.347 11.17 20.3886 10.5949 19.9998 10.2449C19.6803 9.95733 18.9303 9.90733 18.5831 10.1449Z" fill="#FF7443"/>
<path d="M15.7081 15.3204C15.4026 15.6704 15.097 16.533 14.7498 17.9957C14.2637 20.0834 14.5692 25.1214 15.222 25.759C15.5553 26.0965 16.4442 26.0715 16.8192 25.734C17.1525 25.4339 17.1387 25.3339 16.7914 22.9337C16.5137 21.021 16.7914 18.3957 17.4442 16.583C17.6248 16.083 17.6386 15.9204 17.4998 15.6079C17.1803 14.9203 16.1942 14.7578 15.7081 15.3204Z" fill="#FF7443"/>
<path d="M20.597 33.1722C18.2637 33.6848 16.2915 35.41 15.1526 37.9602C14.9304 38.4228 13.7776 42.1231 12.5832 46.1861C11.3749 50.2365 10.3749 53.6618 10.3332 53.7744C10.2638 53.9869 9.91654 53.9994 5.47215 53.9994H0.680547L0.347218 54.3119C0 54.6119 0 54.6369 0 56.9997C0 59.3624 0 59.3874 0.347218 59.6875L0.680547 60H22.2219H43.7633L44.0967 59.6875C44.4439 59.3874 44.4439 59.3624 44.4439 56.9997C44.4439 54.6369 44.4439 54.6119 44.0967 54.3119L43.7633 53.9994H28.1941C15.847 53.9994 12.6387 53.9619 12.6387 53.8369C12.6387 53.7619 13.6109 50.424 14.7915 46.4486C17.1526 38.4978 17.4581 37.7352 18.7498 36.4476C19.1803 36.035 19.7775 35.6225 20.2497 35.41C20.9303 35.1099 21.2081 35.0599 22.2219 35.0599C23.7775 35.0599 24.583 35.385 25.6247 36.3976C26.958 37.6977 27.2913 38.5103 29.3191 45.3235C30.6524 49.8489 31.194 51.5116 31.4163 51.7116C32.0274 52.2992 33.194 51.8742 33.194 51.0616C33.194 50.6365 30.2774 40.5855 29.6246 38.8103C28.0691 34.5099 24.5552 32.3096 20.597 33.1722ZM42.2217 56.9997V57.9998H22.2219H2.22219V56.9997V55.9996H22.2219H42.2217V56.9997Z" fill="#FF7443"/>
<path d="M21.1108 37.1601C20.4303 37.3602 19.2636 38.4353 19.0553 39.0728C18.6664 40.248 19.0692 41.4606 20.1247 42.2607C21.4858 43.3233 23.208 43.2358 24.5136 42.0606C25.9302 40.798 25.9302 39.1978 24.5136 37.9352C23.5414 37.0476 22.4025 36.7976 21.1108 37.1601ZM22.9858 39.3104C23.6803 39.9229 23.1941 40.998 22.2219 40.998C21.9581 40.998 21.6664 40.8855 21.4581 40.6855C21.2358 40.498 21.1108 40.2355 21.1108 39.9979C21.1108 39.7604 21.2358 39.4979 21.4581 39.3104C21.6664 39.1103 21.9581 38.9978 22.2219 38.9978C22.4858 38.9978 22.7775 39.1103 22.9858 39.3104Z" fill="#FF7443"/>
</svg>
